<svg width="2746" height="750" viewBox="0 0 2746 750" fill="none" xmlns="http://www.w3.org/2000/svg">
<path d="M2255.33 62.4473C2246.85 63.1473 2230.31 65.6848 2229.52 66.2973C2229.08 66.7348 2226.81 67.2598 2224.53 67.6098C2222.26 67.9598 2220.51 68.5724 2220.77 68.9224C2221.03 69.3599 2220.51 69.4474 2219.72 69.2724C2217.71 68.7474 2201.17 74.6099 2191.46 79.3349C2181.05 84.2349 2168.53 91.4975 2166.78 93.51C2166 94.4725 2165.12 95.1725 2164.95 94.9975C2163.72 94.21 2140.8 113.198 2137.03 118.01C2135.81 119.673 2133.18 122.648 2131.08 124.748C2127.84 127.985 2127.49 128.598 2128.55 129.998C2129.51 131.223 2129.51 131.31 2128.55 130.435C2127.58 129.648 2126.71 130.173 2124.43 132.973C2122.77 134.898 2121.72 136.91 2122.07 137.348C2122.33 137.873 2122.16 138.048 2121.72 137.785C2120.41 136.998 2111.57 150.473 2105.44 162.548C2099.58 174.36 2092.76 193.26 2090.83 203.235C2090.31 206.123 2089.52 209.623 2089.08 211.11C2088.03 214.698 2086.63 225.898 2085.93 236.486C2085.41 245.148 2086.72 267.986 2088.21 274.898C2091.36 290.036 2092.76 295.548 2093.89 298.173C2094.59 299.836 2095.56 302.986 2096.17 305.173C2096.69 307.273 2097.92 310.861 2098.88 313.048C2102.03 319.873 2109.12 334.398 2110.26 336.236C2121.28 353.648 2125.74 359.598 2127.06 358.811C2127.58 358.548 2127.76 358.548 2127.41 358.986C2126.44 359.948 2128.37 363.098 2129.51 362.398C2130.03 362.048 2130.21 362.136 2129.95 362.661C2129.25 363.798 2132.31 366.686 2133.27 365.811C2133.62 365.373 2133.71 365.636 2133.36 366.248C2132.92 366.948 2134.58 369.311 2137.91 372.724C2142.72 377.711 2143.33 378.061 2144.82 376.924C2146.31 375.699 2146.31 375.699 2145.17 377.186C2144.12 378.499 2144.47 379.111 2148.23 382.436C2150.6 384.449 2152.96 386.024 2153.57 386.024C2154.18 385.936 2154.45 386.286 2154.18 386.724C2153.92 387.161 2154.45 387.774 2155.5 388.036C2156.46 388.299 2157.16 388.824 2156.9 389.174C2156.63 389.524 2157.07 390.049 2157.68 390.311C2158.38 390.574 2161.71 392.761 2165.03 395.211C2173.17 401.161 2183.41 406.849 2184.63 406.149C2185.25 405.711 2185.33 405.886 2184.9 406.674C2184.37 407.549 2184.55 407.724 2185.68 407.286C2186.47 406.936 2187 407.024 2186.73 407.461C2186.3 408.161 2195.66 412.799 2200.21 414.111C2201.43 414.461 2202.57 415.074 2202.83 415.336C2203.71 416.561 2223.75 422.336 2235.21 424.786C2246.5 427.149 2247.98 427.236 2270.65 427.149C2292.96 427.149 2294.88 426.974 2305.21 424.786C2316.58 422.336 2336.8 416.474 2337.58 415.424C2337.85 415.074 2338.98 414.461 2340.21 414.111C2344.76 412.799 2354.12 408.161 2353.68 407.461C2353.42 407.024 2353.95 406.936 2354.73 407.286C2355.87 407.724 2356.05 407.549 2355.52 406.674C2355.08 405.886 2355.17 405.711 2355.78 406.149C2357.01 406.849 2367.25 401.161 2375.38 395.211C2378.71 392.761 2382.03 390.574 2382.73 390.311C2383.35 390.049 2383.78 389.524 2383.52 389.174C2383.26 388.824 2383.96 388.299 2384.92 388.036C2385.97 387.774 2386.5 387.161 2386.15 386.636C2385.88 386.111 2386.15 385.849 2386.76 386.111C2388.51 386.811 2408.02 367.911 2407.15 366.423C2406.71 365.723 2406.8 365.461 2407.32 365.811C2408.46 366.511 2411.35 363.448 2410.47 362.486C2410.03 362.136 2410.21 362.048 2410.82 362.398C2412.05 363.098 2413.97 360.036 2413.01 358.986C2412.66 358.548 2412.83 358.548 2413.36 358.811C2414.67 359.598 2419.13 353.648 2430.16 336.236C2431.3 334.398 2438.38 319.873 2441.53 313.048C2442.5 310.861 2443.72 307.273 2444.25 305.173C2444.86 302.986 2445.82 299.836 2446.52 298.173C2447.66 295.548 2449.06 290.036 2452.21 274.898C2455.45 259.586 2455.01 223.448 2451.33 211.11C2450.9 209.623 2450.11 206.123 2449.58 203.235C2447.66 193.26 2440.83 174.36 2434.97 162.548C2428.85 150.473 2420.01 136.998 2418.7 137.785C2418.26 138.048 2418.08 137.873 2418.35 137.348C2418.7 136.91 2417.65 134.898 2415.98 132.973C2413.71 130.173 2412.83 129.648 2411.87 130.435C2410.91 131.31 2410.91 131.223 2411.87 129.91C2412.92 128.598 2412.57 127.898 2408.63 123.785C2406.18 121.335 2403.3 118.098 2402.25 116.785C2399.01 112.498 2377.66 95.1725 2375.82 95.26C2375.47 95.26 2374.42 94.4725 2373.63 93.51C2371.88 91.4975 2359.37 84.2349 2348.96 79.3349C2339.25 74.6099 2322.71 68.7474 2320.7 69.2724C2319.91 69.4474 2319.38 69.3599 2319.65 68.9224C2319.91 68.5724 2318.16 67.9598 2315.88 67.6098C2313.61 67.2598 2311.42 66.7348 2310.9 66.2973C2307.92 64.0223 2268.81 61.3098 2255.33 62.4473Z" fill="#595959"/>
<path d="M1950.83 261.598C1950.83 270.086 1953.72 294.236 1956.17 306.486C1964.92 350.586 1980.84 389.086 2005.34 425.049C2048.66 488.749 2113.41 534.162 2187.96 553.237C2200.38 556.474 2209.66 558.224 2224.71 560.412C2237.4 562.249 2285.87 562.949 2302.15 561.549C2339.16 558.399 2374.42 548.687 2411.52 531.274C2433.13 521.124 2470.15 496.274 2483.36 482.974C2484.93 481.486 2486.6 480.086 2487.21 479.999C2488 479.824 2488.26 495.136 2488.17 549.912L2488 620.174H2538.83H2589.58V439.049V257.923H2544.96C2503.05 257.923 2500.33 258.011 2500.33 259.411C2500.25 260.898 2498.85 271.398 2498.23 274.986C2498.06 275.948 2497.45 279.448 2496.92 282.686C2489.48 326.786 2467.78 369.311 2436.2 401.336C2428.41 409.211 2415.28 421.024 2408.9 425.749C2377.48 449.111 2339.68 464.249 2299.96 469.411C2286.83 471.074 2258.83 471.249 2246.15 469.761C2208.08 465.211 2172.65 451.911 2140.71 430.036C2115.68 412.886 2088.21 383.136 2073.86 357.673C2070.44 351.723 2059.33 328.798 2059.33 327.836C2059.33 327.398 2058.54 325.386 2057.67 323.286C2052.16 311.298 2045.77 283.736 2044.02 264.223L2043.41 257.923H1997.12H1950.83V261.598Z" fill="#727773"/>
<path d="M155.488 182.371V195.037H264.822H374.155V182.371V169.704H264.822H155.488V182.371Z" fill="#555655"/>
<path d="M1699.49 267.037V351.037H1597.49H1495.49V286.637L1495.35 222.371L1478.69 239.704C1469.49 249.171 1460.02 259.437 1457.49 262.371L1452.95 267.837L1452.55 309.037L1452.15 350.371L1387.22 350.771L1322.15 351.037V291.037V231.037H1211.89C1122.42 231.037 1100.15 231.437 1094.55 232.904C1079.09 237.037 1068.29 245.037 1060.95 257.971L1056.82 265.037V307.971V351.037H984.82H912.82V267.704V184.371H890.82H868.82V267.704V351.171L872.02 357.437C875.887 365.171 884.954 373.704 894.02 378.237C909.487 386.104 880.287 385.704 1330.55 385.704H1743.49V284.371V183.037H1721.49H1699.49V267.037ZM1276.82 307.704V351.037H1190.15H1103.49V307.704V264.371H1190.15H1276.82V307.704Z" fill="#555655"/>
<path d="M1790.16 285.037V385.704H1812.16H1834.16V285.037V184.371H1812.16H1790.16V285.037Z" fill="#555655"/>
<path d="M144.82 233.171C130.954 236.904 119.354 245.971 112.42 258.237L108.82 264.771V325.171V385.704H460.02C653.22 385.704 811.62 385.304 811.887 384.637C812.154 384.104 812.154 349.304 811.754 307.304L811.087 231.037H700.954C579.354 231.037 582.02 230.904 567.62 239.437C560.42 243.837 554.154 250.371 549.087 259.437C546.287 264.371 546.154 265.837 546.154 307.837V351.037H460.154H374.154V291.037V231.037L263.22 231.171C169.887 231.171 150.954 231.571 144.82 233.171ZM328.554 307.971L328.82 351.037H242.154H155.487V307.704V264.371L241.887 264.637L328.154 265.037L328.554 307.971ZM765.887 307.971L766.154 351.037H679.487H592.82V307.704V264.371L679.22 264.637L765.487 265.037L765.887 307.971Z" fill="#555655"/>
<path d="M1360.82 430.371V443.037H1470.15H1579.49V430.371V417.704H1470.15H1360.82V430.371Z" fill="#555655"/>
<path d="M312.82 530.637C312.82 582.371 314.02 597.304 319.22 612.504C326.287 632.504 341.487 645.837 362.02 649.704C366.154 650.504 392.42 651.037 424.287 651.037H479.487V630.371V609.837L428.554 609.437L377.487 609.037L371.487 605.704C367.22 603.304 364.554 600.637 362.554 596.371C359.487 590.504 359.487 589.837 359.487 536.104V481.704H336.154H312.82V530.637Z" fill="#555655"/>
<path d="M505.222 504.637C505.622 517.704 506.822 531.704 508.022 536.904C512.555 557.037 523.089 572.237 538.155 580.237C551.222 587.304 559.622 588.371 601.755 588.371H639.355L638.022 592.104C636.155 597.571 629.222 603.837 622.155 606.637C617.089 608.504 610.422 609.037 579.889 609.437L543.489 609.837V630.504V651.037H582.689C611.889 651.037 624.555 650.504 632.422 649.037C659.622 643.837 677.355 626.904 685.755 598.237C687.622 591.571 688.022 582.637 688.555 536.637L688.955 483.037H664.955H640.822V514.371V545.837L603.622 545.437C568.422 545.037 566.155 544.904 562.689 542.237C553.889 535.704 553.489 534.504 553.089 506.904L552.689 481.704H528.555H504.422L505.222 504.637Z" fill="#555655"/>
<path d="M159.088 484.504C140.021 489.037 120.821 507.704 112.688 529.837C109.621 538.237 109.621 539.437 109.088 594.637L108.688 651.037H132.021H155.488V637.037V623.037H197.488H239.488V637.037V651.037H262.821H286.154V567.037V483.037L225.221 483.171C191.621 483.304 161.888 483.837 159.088 484.504ZM239.488 553.037V583.037H197.488H155.488V567.304C155.488 543.571 160.554 532.771 174.688 526.237C181.221 523.171 182.821 523.037 210.554 523.037H239.488V553.037Z" fill="#555655"/>
<path d="M765.755 484.504C746.689 489.037 727.489 507.704 719.355 529.837C716.289 538.237 716.289 539.437 715.755 594.637L715.355 651.037H738.689H762.155V637.037V623.037H804.155H846.155V637.037V651.037H869.489H892.822V567.037V483.037L831.889 483.171C798.289 483.304 768.555 483.837 765.755 484.504ZM846.155 553.037V583.037H804.155H762.155V567.304C762.155 543.571 767.222 532.771 781.355 526.237C787.889 523.171 789.489 523.037 817.222 523.037H846.155V553.037Z" fill="#555655"/>
<path d="M918.152 567.037V651.037H942.152H966.152V587.037V523.037H980.552C996.819 523.037 1003.09 524.371 1008.82 529.171C1016.29 535.571 1016.82 540.237 1016.82 598.637V651.037H1040.29H1063.62L1063.22 593.304C1062.82 544.237 1062.42 534.771 1060.55 529.171L1058.29 522.771L1074.55 523.304C1092.95 523.971 1101.09 526.771 1106.82 534.237C1112.42 541.704 1112.82 546.371 1112.82 599.971V651.037H1136.29H1159.62L1159.22 593.971C1158.82 537.571 1158.82 536.904 1155.62 529.037C1149.35 513.171 1135.09 495.571 1123.75 489.837C1110.55 483.037 1109.49 483.037 1010.55 483.037H918.152V567.037Z" fill="#555655"/>
<path d="M1236.42 484.504C1217.35 489.037 1198.15 507.704 1190.02 529.837C1186.95 538.237 1186.95 539.437 1186.42 594.637L1186.02 651.037H1209.35H1232.82V637.037V623.037H1274.82H1316.82V637.037V651.037H1340.15H1363.49V567.037V483.037L1302.55 483.171C1268.95 483.304 1239.22 483.837 1236.42 484.504ZM1316.82 553.037V583.037H1274.82H1232.82V567.304C1232.82 543.571 1237.89 532.771 1252.02 526.237C1258.55 523.171 1260.15 523.037 1287.89 523.037H1316.82V553.037Z" fill="#555655"/>
<path d="M1388.82 567.037V651.037H1412.82H1436.82V587.037V523.037H1451.22C1467.49 523.037 1473.75 524.371 1479.49 529.171C1486.95 535.571 1487.49 540.237 1487.49 598.637V651.037H1510.95H1534.29L1533.89 593.304C1533.49 544.237 1533.09 534.771 1531.22 529.171L1528.95 522.771L1545.22 523.304C1563.62 523.971 1571.75 526.771 1577.49 534.237C1583.09 541.704 1583.49 546.371 1583.49 599.971V651.037H1606.95H1630.29L1629.89 593.971C1629.49 537.571 1629.49 536.904 1626.29 529.037C1620.02 513.171 1605.75 495.571 1594.42 489.837C1581.22 483.037 1580.15 483.037 1481.22 483.037H1388.82V567.037Z" fill="#555655"/>
<path d="M1656.82 567.037V651.037H1680.82H1704.82V637.037V623.037H1746.15H1787.49V637.037V651.037H1810.95H1834.29L1833.89 594.637C1833.35 530.104 1833.49 530.771 1820.55 511.437C1813.22 500.637 1804.55 493.304 1792.15 487.437L1784.15 483.704L1720.55 483.304L1656.82 482.904V567.037ZM1764.95 524.504C1772.69 526.904 1779.35 533.171 1783.62 542.237C1787.22 549.837 1787.49 551.437 1787.49 566.637V583.037H1746.15H1704.82V553.037V523.037H1732.29C1749.09 523.037 1761.89 523.571 1764.95 524.504Z" fill="#555655"/>
</svg>
