<svg width="684" height="209" viewBox="0 0 684 209" fill="none" xmlns="http://www.w3.org/2000/svg">
<path d="M198.959 208.935H267.675L332.095 0.0980225H309.015L198.959 208.935Z" fill="#00758D"/>
<path d="M365.018 0.119751H341.959L406.379 208.935H475.095L365.018 0.119751Z" fill="#00758D"/>
<path d="M11.1776 168.368V208.781H126.362C142.884 208.654 158.677 201.969 170.269 190.198C181.861 178.426 188.302 162.533 188.174 146.014C188.046 129.495 181.36 113.703 169.587 102.113C157.815 90.5228 141.919 84.0833 125.398 84.2112H63.4545C57.7186 84.2054 52.2193 81.9245 48.1633 77.8692C44.1074 73.8138 41.8262 68.3153 41.8204 62.5801V62.098C41.8262 56.3629 44.1074 50.8643 48.1633 46.809C52.2193 42.7536 57.7186 40.4728 63.4545 40.467H167.329V0.0101318H62.1175C45.7578 0.26889 30.1552 6.94603 18.6741 18.6017C7.19314 30.2574 0.753596 45.9577 0.744141 62.3172C0.767377 78.8539 7.35528 94.705 19.0604 106.388C30.7656 118.071 46.6305 124.63 63.1696 124.624H125.113C130.845 124.63 136.341 126.908 140.396 130.958C144.452 135.009 146.735 140.502 146.747 146.233V146.847C146.741 152.582 144.46 158.081 140.404 162.136C136.348 166.191 130.849 168.472 125.113 168.478L11.1776 168.368Z" fill="#3D3935"/>
<path d="M507.688 208.935H547.142C547.276 208.935 547.404 208.882 547.499 208.787C547.593 208.693 547.646 208.564 547.646 208.431V40.9272C547.646 40.7993 547.697 40.6767 547.788 40.5863C547.878 40.4958 548.001 40.445 548.129 40.445H618.27C624.135 40.445 629.761 42.7748 633.908 46.9218C638.056 51.0689 640.386 56.6934 640.386 62.5582C640.38 68.2934 638.099 73.7919 634.043 77.8473C629.987 81.9026 624.488 84.1835 618.752 84.1893H569.741C569.654 84.19 569.568 84.2133 569.493 84.2568C569.418 84.3004 569.355 84.3627 569.311 84.4377C569.266 84.5128 569.243 84.598 569.241 84.685C569.24 84.772 569.261 84.858 569.302 84.9344L639.553 208.212C639.596 208.291 639.659 208.357 639.736 208.403C639.813 208.449 639.901 208.474 639.991 208.475H683.501C683.588 208.474 683.673 208.451 683.748 208.407C683.824 208.363 683.887 208.301 683.931 208.226C683.975 208.151 683.999 208.066 684 207.979C684.002 207.892 683.981 207.806 683.939 207.729L637.449 127.298L635.257 123.287C635.221 123.225 635.198 123.156 635.192 123.085C635.186 123.013 635.196 122.941 635.221 122.874C635.246 122.807 635.286 122.746 635.338 122.696C635.39 122.646 635.452 122.609 635.52 122.586L639.904 121.03C646.148 118.802 652 115.599 657.242 111.54C667.221 103.803 674.614 93.2169 678.441 81.1841C682.269 69.1513 682.349 56.2398 678.672 44.1603C674.995 32.0808 667.735 21.4033 657.852 13.5424C647.969 5.6815 635.931 1.0082 623.333 0.141628C622.215 0.141628 621.141 0.0320478 620.001 0.0101318H507.776C507.642 0.0101318 507.514 0.0632392 507.419 0.15777C507.325 0.252301 507.271 0.380511 507.271 0.514197V208.431C507.271 208.564 507.325 208.693 507.419 208.787C507.514 208.882 507.642 208.935 507.776 208.935" fill="#3D3935"/>
</svg>
