<svg width="1357" height="727" viewBox="0 0 1357 727" fill="none" xmlns="http://www.w3.org/2000/svg">
<path d="M67.6166 653.445L70.4162 640.304C76.7424 642.889 83.4912 644.286 90.324 644.425C98.7227 644.425 102.922 641.548 102.922 635.794C103.039 634.448 102.802 633.095 102.236 631.868C101.67 630.641 100.794 629.582 99.6947 628.797C96.0397 626.647 92.1179 624.987 88.03 623.859C82.3815 622.165 77.1769 619.245 72.788 615.306C71.0201 613.433 69.653 611.219 68.7705 608.799C67.888 606.379 67.5086 603.804 67.6555 601.233C67.4924 598.206 68.0243 595.182 69.2105 592.392C70.3967 589.602 72.2056 587.121 74.4989 585.138C80.0485 581.044 86.8624 579.035 93.7457 579.462C100.734 579.326 107.673 580.65 114.12 583.349L111.087 596.257C105.891 594.117 100.337 592.983 94.7178 592.913C87.1357 592.913 83.3641 595.518 83.3641 600.688C83.2827 601.851 83.4762 603.016 83.9287 604.09C84.3813 605.164 85.0803 606.116 85.9692 606.87C88.9452 608.847 92.1937 610.379 95.6121 611.419C99.267 612.689 102.3 613.894 104.711 615.034C107.197 616.232 109.533 617.719 111.671 619.466C113.909 621.233 115.651 623.551 116.725 626.192C117.877 629.178 118.431 632.361 118.358 635.561C118.522 638.702 117.921 641.836 116.608 644.693C115.294 647.551 113.306 650.047 110.815 651.967C104.986 656.073 97.9511 658.112 90.8295 657.76C82.8244 657.981 74.8662 656.469 67.5 653.328" fill="#2B2B2B"/>
<path d="M176.216 656.555L171.667 639.877H143.866C142.336 644.931 140.82 650.49 139.316 656.555H123.258C129.909 630.61 138.714 605.265 149.581 580.784H165.718C176.669 605.243 185.514 630.592 192.158 656.555H176.216ZM157.708 597.229C153.705 606.831 150.303 616.673 147.52 626.697H167.778C165.025 616.678 161.662 606.837 157.708 597.229Z" fill="#2B2B2B"/>
<path d="M194.957 626.464V580.784H210.51V625.376C210.51 637.933 215.409 644.231 225.13 644.231C234.851 644.231 239.672 637.933 239.672 625.376V580.784H255.225V626.464C255.792 634.958 252.999 643.335 247.449 649.79C244.498 652.62 240.988 654.801 237.144 656.193C233.301 657.586 229.208 658.159 225.13 657.877C221.046 658.153 216.95 657.576 213.101 656.184C209.252 654.792 205.735 652.615 202.773 649.79C197.207 643.344 194.412 634.96 194.996 626.464" fill="#2B2B2B"/>
<path d="M270.117 656.555V580.784H295.507C300.586 580.621 305.644 581.481 310.384 583.311C315.123 585.142 319.446 587.906 323.095 591.441C326.745 594.975 329.647 599.206 331.629 603.884C333.611 608.561 334.632 613.589 334.632 618.669C334.632 623.749 333.611 628.777 331.629 633.455C329.647 638.132 326.745 642.364 323.095 645.898C319.446 649.432 315.123 652.197 310.384 654.027C305.644 655.858 300.586 656.718 295.507 656.555H270.117ZM295.041 593.963H285.631V643.337H295.041C309.79 643.337 317.152 635.043 317.126 618.455C317.1 601.868 309.738 593.704 295.041 593.963Z" fill="#2B2B2B"/>
<path d="M360.44 580.745H344.965V656.555H360.44V580.745Z" fill="#2B2B2B"/>
<path d="M448.044 656.555L443.495 639.877H415.577C414.048 644.931 412.531 650.49 411.028 656.555H395.086C401.737 630.61 410.542 605.265 421.409 580.784H437.546C448.514 605.237 457.36 630.587 463.986 656.555H448.044ZM429.536 597.229C425.534 606.831 422.131 616.673 419.349 626.697H439.606C436.853 616.678 433.49 606.837 429.536 597.229Z" fill="#2B2B2B"/>
<path d="M493.809 628.408H489.143V656.555H473.59V580.783H495.908C503.667 580.327 511.367 582.371 517.877 586.615C520.45 588.536 522.507 591.065 523.864 593.976C525.221 596.886 525.836 600.087 525.654 603.293C525.654 614.179 520.638 620.93 510.606 623.548C514.661 625.782 517.83 629.335 519.588 633.617L530.63 656.555H513.95L503.646 635.133C502.701 633.119 501.288 631.359 499.524 630.002C497.791 628.883 495.754 628.327 493.692 628.408M494.975 593.963H489.026V615.423H494.975C504.8 615.423 509.712 611.807 509.712 604.576C509.876 603.008 509.625 601.425 508.983 599.985C508.342 598.545 507.332 597.299 506.057 596.373C502.66 594.551 498.822 593.716 494.975 593.963Z" fill="#2B2B2B"/>
<path d="M587.786 656.555L583.237 639.877H555.28C553.751 644.931 552.235 650.49 550.731 656.555H534.828C541.451 630.606 550.243 605.26 561.113 580.784H577.249C588.218 605.237 597.064 630.587 603.689 656.555H587.786ZM569.239 597.229C565.237 606.831 561.835 616.673 559.052 626.697H579.349C576.614 616.673 573.251 606.83 569.278 597.229" fill="#2B2B2B"/>
<path d="M638.762 656.555H613.1V580.784H636.429C643.614 580.374 650.759 582.106 656.959 585.76C659.361 587.339 661.306 589.519 662.602 592.084C663.899 594.648 664.5 597.508 664.347 600.378C664.482 603.477 663.781 606.557 662.317 609.293C660.853 612.029 658.68 614.321 656.026 615.928C659.528 617.417 662.482 619.955 664.481 623.193C666.479 626.431 667.424 630.209 667.185 634.006C667.407 637.204 666.835 640.408 665.519 643.332C664.203 646.255 662.184 648.808 659.642 650.762C653.454 654.868 646.097 656.847 638.684 656.399M628.069 593.807V612.118H639.229C640.535 612.315 641.869 612.206 643.127 611.801C644.384 611.395 645.531 610.704 646.476 609.781C647.421 608.858 648.14 607.729 648.576 606.482C649.012 605.235 649.153 603.904 648.988 602.594C648.988 596.762 644.828 593.807 636.546 593.807H628.069ZM628.069 623.82V643.259H637.673C641.388 643.49 645.099 642.753 648.444 641.121C649.658 640.36 650.638 639.278 651.276 637.995C651.914 636.712 652.186 635.278 652.06 633.851C652.06 627.203 647.705 623.898 638.957 623.898L628.069 623.82Z" fill="#2B2B2B"/>
<path d="M694.325 580.745H678.85V656.555H694.325V580.745Z" fill="#2B2B2B"/>
<path d="M756.731 656.555L752.182 639.877H724.226C722.722 644.931 721.206 650.49 719.676 656.555H703.773C710.396 630.606 719.189 605.26 730.058 580.784H746.194C757.163 605.237 766.009 630.587 772.634 656.555H756.731ZM738.184 597.229C734.182 606.831 730.78 616.673 727.997 626.697H748.255C745.521 616.673 742.157 606.83 738.184 597.229Z" fill="#2B2B2B"/>
<path d="M827.537 628.408H822.871V656.555H807.318V580.784H829.637C837.407 580.335 845.117 582.378 851.644 586.615C854.218 588.537 856.275 591.066 857.632 593.976C858.989 596.886 859.603 600.087 859.421 603.293C859.421 614.179 854.405 620.931 844.373 623.548C848.428 625.782 851.597 629.335 853.355 633.617L864.398 656.555H847.64L837.336 635.134C836.391 633.119 834.977 631.36 833.214 630.002C831.48 628.884 829.444 628.327 827.382 628.408M828.704 593.963H822.716V615.423H828.704C838.502 615.423 843.401 611.807 843.401 604.576C843.566 603.009 843.315 601.425 842.673 599.985C842.031 598.545 841.022 597.3 839.746 596.373C836.364 594.551 832.538 593.715 828.704 593.963Z" fill="#2B2B2B"/>
<path d="M921.517 656.555L916.967 639.877H889.011C887.481 644.931 885.965 650.49 884.462 656.555H868.559C875.181 630.606 883.974 605.26 894.843 580.784H911.018C921.955 605.245 930.787 630.594 937.42 656.555H921.517ZM902.97 597.229C898.985 606.834 895.596 616.675 892.821 626.697H913.04C910.306 616.673 906.942 606.83 902.97 597.229Z" fill="#2B2B2B"/>
<path d="M962.499 580.745H947.023V656.555H962.499V580.745Z" fill="#2B2B2B"/>
<path d="M978.09 656.555V580.745H993.565V643.375H1024.2V656.555H978.09Z" fill="#2B2B2B"/>
<path d="M1095.83 641.937C1098.13 635.173 1100.62 626.011 1103.29 614.451C1105.96 602.892 1108.05 591.669 1109.55 580.784H1125.38C1120.19 611.885 1113.38 637.142 1104.92 656.555H1087.89C1081.99 641.209 1077.29 625.43 1073.82 609.358C1070.28 625.423 1065.53 641.2 1059.63 656.555H1042.63C1037.93 644.915 1034.03 632.964 1030.97 620.788C1027.37 607.103 1024.52 593.769 1022.42 580.784H1037.97C1039.65 591.825 1041.81 603.138 1044.42 614.723C1046.4 623.924 1048.88 633.009 1051.85 641.937C1054.65 634.343 1057.5 624.948 1060.4 613.751C1063.21 602.899 1065.38 591.89 1066.9 580.784H1080.93C1082.52 592.003 1084.73 603.126 1087.54 614.101C1089.84 623.534 1092.67 632.828 1096.02 641.937" fill="#2B2B2B"/>
<path d="M1175.85 656.555L1171.3 639.877H1143.34C1141.84 644.931 1140.32 650.49 1138.79 656.555H1122.89C1129.52 630.604 1138.33 605.258 1149.21 580.784H1165.35C1176.28 605.245 1185.12 630.594 1191.75 656.555H1175.85ZM1157.34 597.229C1153.28 606.822 1149.84 616.665 1147.03 626.697H1167.29C1164.52 616.684 1161.16 606.844 1157.22 597.229" fill="#2B2B2B"/>
<path d="M1216.36 656.555H1200.81V626.231C1190.48 612.251 1182.03 596.97 1175.69 580.784H1191.59C1196.05 592.336 1201.76 603.366 1208.62 613.674C1215.44 603.365 1221.1 592.335 1225.5 580.784H1241.44C1235 596.92 1226.56 612.188 1216.32 626.231L1216.36 656.555Z" fill="#2B2B2B"/>
<path d="M1246.03 653.445L1248.83 640.304C1255.17 642.893 1261.93 644.29 1268.78 644.425C1277.14 644.425 1281.33 641.548 1281.33 635.794C1281.44 634.454 1281.2 633.109 1280.64 631.886C1280.08 630.662 1279.22 629.599 1278.15 628.797C1274.49 626.659 1270.56 625 1266.48 623.859C1260.84 622.174 1255.65 619.252 1251.28 615.306C1249.5 613.441 1248.12 611.229 1247.23 608.808C1246.34 606.387 1245.96 603.808 1246.11 601.233C1245.94 598.206 1246.48 595.182 1247.66 592.392C1248.85 589.602 1250.66 587.121 1252.95 585.138C1258.55 581.003 1265.44 578.991 1272.39 579.462C1279.37 579.331 1286.29 580.655 1292.73 583.349L1289.69 596.257C1284.51 594.118 1278.97 592.983 1273.36 592.913C1265.59 592.913 1261.97 595.518 1261.97 600.689C1261.9 601.85 1262.1 603.012 1262.55 604.085C1263 605.157 1263.69 606.11 1264.58 606.87C1267.56 608.839 1270.8 610.371 1274.22 611.419C1277.31 612.462 1280.35 613.669 1283.32 615.034C1285.81 616.239 1288.16 617.726 1290.32 619.466C1292.53 621.246 1294.26 623.561 1295.33 626.192C1296.48 629.178 1297.04 632.361 1296.97 635.561C1297.13 638.702 1296.53 641.836 1295.21 644.693C1293.9 647.551 1291.91 650.047 1289.42 651.967C1283.59 656.073 1276.56 658.112 1269.44 657.76C1261.43 657.977 1253.47 656.466 1246.11 653.328" fill="#2B2B2B"/>
<path d="M418.92 409.491H540.817L655.092 39.0325H614.149L418.92 409.491Z" fill="#454545"/>
<path d="M713.494 39.0713H672.59L786.866 409.491H908.762L713.494 39.0713Z" fill="#454545"/>
<path d="M85.8137 337.53V409.219H290.141C319.449 408.992 347.466 397.134 368.029 376.253C388.592 355.372 400.017 327.179 399.79 297.876C399.563 268.572 387.703 240.559 366.819 219.999C345.935 199.439 317.738 188.016 288.431 188.242H178.549C168.373 188.232 158.618 184.186 151.423 176.992C144.228 169.798 140.182 160.044 140.172 149.871V149.016C140.182 138.842 144.228 129.088 151.423 121.894C158.618 114.7 168.373 110.654 178.549 110.644H362.813V38.877H176.177C147.156 39.336 119.478 51.1807 99.112 71.8568C78.7456 92.533 67.3224 120.384 67.3057 149.404C67.3469 178.739 79.0333 206.858 99.7972 227.582C120.561 248.307 148.704 259.942 178.043 259.932H287.925C298.093 259.942 307.843 263.983 315.037 271.168C322.23 278.353 326.282 288.097 326.302 298.264V299.353C326.292 309.526 322.245 319.28 315.05 326.474C307.856 333.668 298.1 337.714 287.925 337.724L85.8137 337.53Z" fill="#2B2B2B"/>
<path d="M966.581 409.491H1036.57C1036.81 409.491 1037.03 409.397 1037.2 409.23C1037.37 409.062 1037.46 408.834 1037.46 408.597V111.46C1037.46 111.233 1037.55 111.016 1037.71 110.856C1037.87 110.695 1038.09 110.605 1038.32 110.605H1162.74C1173.15 110.605 1183.13 114.738 1190.48 122.094C1197.84 129.451 1201.98 139.428 1201.98 149.832C1201.97 160.006 1197.92 169.76 1190.72 176.953C1183.53 184.147 1173.77 188.193 1163.6 188.204H1076.66C1076.5 188.205 1076.35 188.246 1076.22 188.323C1076.08 188.401 1075.97 188.511 1075.89 188.644C1075.82 188.777 1075.77 188.929 1075.77 189.083C1075.77 189.237 1075.81 189.39 1075.88 189.525L1200.5 408.209C1200.57 408.349 1200.69 408.466 1200.82 408.548C1200.96 408.63 1201.12 408.674 1201.28 408.675H1278.46C1278.61 408.674 1278.76 408.632 1278.9 408.555C1279.03 408.478 1279.14 408.367 1279.22 408.234C1279.3 408.101 1279.34 407.95 1279.34 407.796C1279.35 407.641 1279.31 407.489 1279.23 407.353L1196.77 264.675L1192.88 257.56C1192.81 257.45 1192.77 257.327 1192.76 257.201C1192.75 257.074 1192.77 256.946 1192.81 256.827C1192.86 256.708 1192.93 256.6 1193.02 256.512C1193.11 256.423 1193.22 256.356 1193.34 256.316L1201.12 253.556C1212.2 249.603 1222.58 243.921 1231.88 236.722C1249.58 222.997 1262.69 204.218 1269.48 182.873C1276.27 161.527 1276.41 138.624 1269.89 117.196C1263.37 95.7676 1250.49 76.8266 1232.96 62.882C1215.43 48.9375 1194.07 40.6474 1171.72 39.1102C1169.74 39.1102 1167.84 38.9158 1165.81 38.877H966.736C966.499 38.877 966.271 38.9712 966.104 39.1389C965.936 39.3065 965.842 39.534 965.842 39.7711V408.597C965.842 408.834 965.936 409.062 966.104 409.23C966.271 409.397 966.499 409.491 966.736 409.491" fill="#2B2B2B"/>
<path d="M103.661 454.822L112.099 462.947L122.169 452.762L111.865 442.459L103.661 450.662L95.2624 442.459L85.0752 452.762L95.3402 462.947L103.661 454.822Z" fill="#2B2B2B"/>
<path d="M89.8964 514.459C83.5196 514.459 79.9035 511.194 79.9035 505.829C79.9035 497.276 87.369 490.511 100.822 487.867V505.829C100.836 507.991 101.018 510.148 101.367 512.282C97.7204 513.744 93.8247 514.483 89.8964 514.459ZM122.169 528.572H131.151C147.131 528.572 155.452 520.174 155.452 507.034C155.076 496.461 153.971 485.926 152.147 475.505H138.383C140.184 485.157 141.276 494.928 141.649 504.74C141.649 511.194 139.122 514.148 131.151 514.148H122.169C116.375 514.148 114.626 511.31 114.626 506.373V469.595H100.822V475.505C75.1988 479.664 66.4502 494.943 66.4502 507.15C66.4502 520.485 75.4321 528.455 89.7797 528.455C95.8226 528.227 101.687 526.345 106.732 523.012C108.829 524.914 111.286 526.375 113.957 527.31C116.629 528.245 119.461 528.634 122.286 528.455" fill="#2B2B2B"/>
<path d="M138.383 543.034L130.178 535.142L119.991 545.328L130.373 555.514L138.383 547.622L146.47 555.514L156.657 545.328L146.354 535.142L138.383 543.034Z" fill="#2B2B2B"/>
<path d="M181.504 475.505C188.93 491.055 193.168 503.729 193.168 507.811C193.168 511.894 189.786 514.148 181.893 514.148C175.791 514.04 169.728 513.151 163.851 511.505L161.207 525.189C168.969 527.421 177.004 528.56 185.081 528.572C199.312 528.572 206.738 521.807 206.738 509.872C206.738 502.446 202.461 489.189 195.579 475.505H181.504Z" fill="#2B2B2B"/>
<path d="M305.15 511.621C301.071 504.15 296.238 497.115 290.725 490.628C294.832 488.786 299.253 487.743 303.751 487.557C312.266 487.557 317.204 491.444 317.204 496.965C317.204 502.485 312.383 508.356 305.15 511.621ZM245.194 514.459C234.151 514.459 228.124 510.3 228.124 501.902C228.003 500.278 228.212 498.646 228.738 497.105C229.265 495.564 230.099 494.146 231.189 492.936C232.279 491.726 233.603 490.75 235.081 490.066C236.559 489.382 238.161 489.004 239.789 488.956C246.243 488.956 250.054 492.844 250.637 501.552C250.637 505.44 251.182 509.328 251.376 514.382H245.155M447.344 504.662C447.344 511.116 444.816 514.071 436.846 514.071C432.285 514.169 427.783 513.026 423.82 510.766C425.604 503.321 426.414 495.676 426.231 488.023V480.248H413.399V488.023C413.399 498.403 412.855 504.973 410.989 508.939C410.171 510.702 408.806 512.154 407.097 513.079C405.387 514.003 403.425 514.351 401.501 514.071C397.74 514.061 394.031 513.197 390.653 511.544C392.631 503.933 393.508 496.077 393.258 488.217H380.349C380.349 498.598 379.805 505.168 377.939 509.133C377.114 510.9 375.742 512.353 374.026 513.277C372.31 514.202 370.341 514.548 368.412 514.265C364.357 514.233 360.364 513.261 356.748 511.427C358.589 503.793 359.438 495.953 359.275 488.101H346.444C346.444 498.481 345.899 505.051 344.033 509.017C343.442 510.695 342.294 512.12 340.78 513.053C339.266 513.987 337.477 514.374 335.712 514.148C330.849 514.223 325.987 513.924 321.17 513.254C324.036 510.777 326.348 507.725 327.955 504.295C329.563 500.866 330.431 497.136 330.502 493.349C330.502 482.192 320.315 473.328 304.917 473.328C295.391 473.328 283.337 477.798 270.973 485.924L276.65 497.587L279.721 495.954C284.503 501.204 288.689 506.967 292.203 513.138C285.124 514.034 277.991 514.437 270.856 514.343H264.79C264.79 508.317 264.557 504.507 264.324 500.658C263.468 484.252 254.175 474.96 240.489 474.96C225.83 474.96 214.865 486.623 214.865 502.524C214.865 518.425 226.141 528.766 243.561 528.766H250.987C248.576 535.686 239.322 539.846 224.158 539.846V552.054C251.376 552.054 263.041 542.529 264.79 528.494H271.012C287.887 528.494 295.741 527.328 306.9 522.585C315.852 526.85 325.681 528.954 335.595 528.727C338.649 528.891 341.698 528.332 344.495 527.096C347.292 525.859 349.758 523.981 351.693 521.613C359.119 526.278 363.824 528.727 369.384 528.727C372.368 528.873 375.346 528.339 378.094 527.168C380.842 525.996 383.288 524.216 385.248 521.963C392.247 526.55 396.913 528.727 402.318 528.727C405.49 528.874 408.653 528.267 411.545 526.956C414.438 525.645 416.979 523.667 418.96 521.185C423.704 525.849 430.039 528.544 436.69 528.727C452.671 528.727 460.992 520.33 460.992 507.189V449.263H447.149L447.344 504.662Z" fill="#2B2B2B"/>
<path d="M492.448 449.263H478.645V528.611H492.448V449.263Z" fill="#2B2B2B"/>
<path d="M565.74 454.822L574.178 462.947L584.248 452.762L573.983 442.459L565.74 450.662L557.341 442.459L547.154 452.762L557.458 462.947L565.74 454.822Z" fill="#2B2B2B"/>
<path d="M600.464 543.034L592.221 535.142L582.072 545.328L592.454 555.514L600.464 547.622L608.551 555.514L618.739 545.328L608.435 535.142L600.464 543.034Z" fill="#2B2B2B"/>
<path d="M552.132 514.459C545.755 514.459 542.139 511.194 542.139 505.829C542.139 497.276 549.604 490.511 563.058 487.867V505.829C563.071 507.991 563.253 510.148 563.602 512.282C559.956 513.744 556.06 514.483 552.132 514.459ZM584.404 528.572H593.386C609.367 528.572 617.688 520.174 617.688 507.034C617.311 496.461 616.207 485.926 614.383 475.505H600.618C602.42 485.157 603.511 494.928 603.884 504.74C603.884 511.194 601.357 514.148 593.386 514.148H584.404C578.611 514.148 576.861 511.31 576.861 506.373V469.595H563.058V475.505C537.434 479.664 528.686 494.943 528.686 507.15C528.686 520.485 537.667 528.455 552.015 528.455C558.058 528.227 563.922 526.345 568.968 523.012C571.064 524.914 573.521 526.375 576.192 527.31C578.864 528.245 581.696 528.634 584.521 528.455" fill="#2B2B2B"/>
<path d="M678.033 528.727H687.015C702.996 528.727 711.316 520.33 711.316 507.189C710.959 496.617 709.867 486.082 708.05 475.66H694.247C696.049 485.312 697.14 495.084 697.513 504.896C697.513 511.349 695.025 514.304 687.015 514.304H678.033C675.293 514.355 672.622 513.441 670.49 511.721C668.357 510 666.898 507.584 666.368 504.896C663.716 495.307 661.779 485.535 660.575 475.66H646.344C648.209 487.183 650.873 498.562 654.315 509.716L655.637 513.099C651.389 513.96 647.061 514.364 642.728 514.304C636.978 514.252 631.267 513.362 625.775 511.66L623.131 525.345C629.359 527.616 635.942 528.761 642.572 528.727C649.651 528.8 656.588 526.741 662.48 522.818C666.678 526.769 672.271 528.894 678.033 528.727Z" fill="#2B2B2B"/>
<path d="M694.247 543.034L686.043 535.142L675.855 545.328L686.237 555.514L694.247 547.622L702.334 555.514L712.522 545.328L702.218 535.142L694.247 543.034Z" fill="#2B2B2B"/>
<path d="M851.526 504.74C851.526 511.194 848.999 514.148 841.028 514.148C834.34 514.148 830.724 512.632 829.091 509.989L832.474 509.328L836.362 495.332C816.338 490.278 808.911 474.766 792.386 474.766C786.918 474.987 781.583 476.52 776.833 479.237L780.721 491.483C784.151 489.9 787.871 489.04 791.647 488.956C801.29 488.956 806.656 495.993 819.137 501.98C806.228 506.917 797.557 514.148 772.051 514.148C769.311 514.2 766.64 513.285 764.507 511.565C762.374 509.845 760.915 507.429 760.386 504.74C757.733 495.152 755.797 485.38 754.592 475.505H740.361C742.219 487.033 744.895 498.414 748.371 509.561L749.654 512.943C745.407 513.804 741.079 514.208 736.745 514.148C730.996 514.097 725.285 513.206 719.792 511.505L717.148 525.189C723.377 527.46 729.96 528.606 736.59 528.572C743.668 528.644 750.605 526.585 756.498 522.663C760.697 526.609 766.289 528.734 772.051 528.572C801.057 528.572 805.684 518.503 820.459 512.632C821.742 523.129 828.858 528.572 841.028 528.572C857.009 528.572 865.33 520.174 865.33 507.034V449.263H851.526V504.74Z" fill="#2B2B2B"/>
<path d="M896.631 449.263H882.828V528.611H896.631V449.263Z" fill="#2B2B2B"/>
<path d="M972.996 514.148C967.086 514.148 961.604 513.915 956.16 513.487C975.601 492.027 982.95 484.835 992.826 484.835C994.459 484.729 996.095 484.958 997.636 485.506C999.177 486.055 1000.59 486.913 1001.79 488.027C1002.98 489.14 1003.94 490.487 1004.6 491.984C1005.26 493.481 1005.61 495.096 1005.62 496.731C1005.62 506.801 992.826 514.148 972.996 514.148ZM995.393 470.412C983.728 470.412 974.513 476.749 957.754 495.021C959.473 488.067 960.463 480.953 960.709 473.794V449.302H946.906V507.345C945.701 508.9 944.379 510.3 943.018 511.855C939.596 511.427 936.33 510.766 933.064 510.105L930.42 523.673C944.069 526.908 958.037 528.603 972.063 528.727C1002.59 528.727 1019.58 515.159 1019.58 494.943C1019.75 491.707 1019.24 488.47 1018.09 485.441C1016.94 482.411 1015.17 479.654 1012.89 477.346C1010.62 475.038 1007.89 473.229 1004.87 472.035C1001.86 470.841 998.632 470.288 995.393 470.412Z" fill="#2B2B2B"/>
<path d="M1211.27 457.777L1200.96 447.63L1190.82 457.777L1201.08 467.963L1211.27 457.777Z" fill="#2B2B2B"/>
<path d="M1120.21 514.149H1103.25C1122.3 493.038 1130.16 484.796 1139.8 484.796C1141.43 484.695 1143.06 484.929 1144.6 485.484C1146.13 486.038 1147.54 486.901 1148.72 488.02C1149.91 489.138 1150.86 490.489 1151.5 491.987C1152.15 493.485 1152.48 495.1 1152.48 496.732C1152.48 506.801 1139.69 514.149 1120.21 514.149ZM1057.99 514.46C1046.95 514.46 1040.92 510.3 1040.92 501.902C1040.8 500.278 1041.01 498.646 1041.54 497.105C1042.06 495.564 1042.9 494.146 1043.99 492.936C1045.08 491.726 1046.4 490.75 1047.88 490.066C1049.36 489.382 1050.96 489.004 1052.59 488.956C1059.04 488.956 1062.89 492.844 1063.44 501.552C1063.67 505.44 1063.98 509.328 1064.21 514.382H1057.95M1252.79 504.663C1252.79 511.116 1250.27 514.071 1242.26 514.071C1235.61 514.071 1231.99 512.516 1230.36 509.911L1233.74 509.25L1237.63 495.254C1217.61 490.2 1210.18 474.688 1193.65 474.688C1188.19 474.905 1182.85 476.438 1178.1 479.159L1181.99 491.405C1185.43 489.823 1189.17 488.963 1192.95 488.878C1202.6 488.878 1207.96 495.915 1220.44 501.902C1207.5 506.84 1198.86 514.071 1173.36 514.071C1169.31 514.14 1165.31 513.233 1161.69 511.427C1164.94 506.464 1166.62 500.64 1166.51 494.71C1166.64 491.511 1166.1 488.32 1164.95 485.333C1163.8 482.347 1162.04 479.627 1159.8 477.341C1157.56 475.056 1154.87 473.252 1151.91 472.04C1148.94 470.828 1145.76 470.235 1142.56 470.295C1131.48 470.295 1121.53 476.865 1105.78 495.138C1107.5 488.105 1108.49 480.913 1108.73 473.678V449.185H1094.93V508.161C1093.42 510.144 1091.86 512.049 1090.34 514.071H1077.75C1077.75 508.045 1077.75 504.235 1077.32 500.386C1076.42 483.98 1067.13 474.688 1053.44 474.688C1038.79 474.688 1027.86 486.351 1027.86 502.252C1027.86 518.153 1039.14 528.494 1056.52 528.494H1063.98C1061.57 535.414 1052.32 539.574 1037.15 539.574V552.054C1064.37 552.054 1076.03 542.529 1077.75 528.494H1121.53C1133.05 529.015 1144.44 525.842 1154.03 519.436C1156.51 522.158 1159.51 524.36 1162.84 525.915C1166.18 527.47 1169.8 528.347 1173.47 528.494C1202.48 528.494 1207.07 518.425 1221.84 512.555C1223.17 523.051 1230.28 528.494 1242.41 528.494C1258.39 528.494 1266.71 520.097 1266.71 506.956V449.263H1252.95L1252.79 504.663Z" fill="#2B2B2B"/>
<path d="M1298.09 449.263H1284.29V528.611H1298.09V449.263Z" fill="#2B2B2B"/>
</svg>
