<svg width="33" height="33" viewBox="0 0 33 33" fill="none" xmlns="http://www.w3.org/2000/svg">
<g clip-path="url(#clip0_18_1273)">
<path d="M16.5065 20.6914L19.1811 22.0967C19.7011 22.37 20.3105 21.9287 20.2105 21.3487L19.6998 18.3714L21.8638 16.2647C22.2851 15.854 22.0531 15.138 21.4705 15.054L18.4811 14.6194L17.1438 11.9087C16.8838 11.3807 16.1318 11.3807 15.8705 11.9087L14.5345 14.6194L11.5451 15.054C10.9625 15.138 10.7305 15.854 11.1518 16.2647L13.3158 18.3714L12.8051 21.3487C12.7051 21.9287 13.3145 22.37 13.8345 22.0967L16.5091 20.6914H16.5065Z" fill="#1698B2" stroke="#1698B2" stroke-width="1.5" stroke-linecap="round" stroke-linejoin="round"/>
<path d="M29.1746 16.8462H27.7079" stroke="#1698B2" stroke-width="1.5" stroke-linecap="round" stroke-linejoin="round"/>
<path d="M5.30785 16.8462H3.84119" stroke="#1698B2" stroke-width="1.5" stroke-linecap="round" stroke-linejoin="round"/>
<path d="M25.6545 7.69946L24.2545 9.09946" stroke="#1698B2" stroke-width="1.5" stroke-linecap="round" stroke-linejoin="round"/>
<path d="M7.38782 26.0327L8.80115 24.6194" stroke="#1698B2" stroke-width="1.5" stroke-linecap="round" stroke-linejoin="round"/>
<path d="M7.36121 7.72607L8.76121 9.13941" stroke="#1698B2" stroke-width="1.5" stroke-linecap="round" stroke-linejoin="round"/>
<path d="M25.6945 25.9928L24.2811 24.5928" stroke="#1698B2" stroke-width="1.5" stroke-linecap="round" stroke-linejoin="round"/>
<path d="M16.5078 28.0994V29.5127" stroke="#1698B2" stroke-width="1.5" stroke-linecap="round" stroke-linejoin="round"/>
<path d="M16.5078 4.17944V5.59278" stroke="#1698B2" stroke-width="1.5" stroke-linecap="round" stroke-linejoin="round"/>
</g>
<defs>
<clipPath id="clip0_18_1273">
<rect width="32" height="32" fill="white" transform="translate(0.507812 0.846191)"/>
</clipPath>
</defs>
</svg>
