<svg width="1878" height="1441" viewBox="0 0 1878 1441" fill="none" xmlns="http://www.w3.org/2000/svg">
<path d="M948.7 24.1716C935.766 25.2383 910.566 29.1049 909.366 30.0383C908.7 30.7049 905.233 31.5049 901.766 32.0383C898.3 32.5716 895.633 33.505 896.033 34.0383C896.433 34.705 895.633 34.8383 894.433 34.5716C891.366 33.7716 866.166 42.705 851.366 49.905C835.5 57.3716 816.433 68.4383 813.766 71.505C812.566 72.9716 811.233 74.0383 810.966 73.7716C809.1 72.5716 774.166 101.505 768.433 108.838C766.566 111.372 762.566 115.905 759.366 119.105C754.433 124.038 753.9 124.972 755.5 127.105C756.966 128.972 756.966 129.105 755.5 127.772C754.033 126.572 752.7 127.372 749.233 131.638C746.7 134.572 745.1 137.638 745.633 138.305C746.033 139.105 745.766 139.372 745.1 138.972C743.1 137.772 729.633 158.305 720.3 176.705C711.366 194.705 700.966 223.505 698.033 238.705C697.233 243.105 696.033 248.438 695.366 250.705C693.766 256.172 691.633 273.238 690.566 289.372C689.766 302.572 691.766 337.372 694.033 347.905C698.833 370.972 700.966 379.372 702.7 383.372C703.766 385.905 705.233 390.705 706.166 394.038C706.966 397.238 708.833 402.705 710.3 406.038C715.1 416.438 725.9 438.572 727.633 441.372C744.433 467.905 751.233 476.972 753.233 475.772C754.033 475.372 754.3 475.372 753.766 476.038C752.3 477.505 755.233 482.305 756.966 481.238C757.766 480.705 758.033 480.838 757.633 481.638C756.566 483.372 761.233 487.772 762.7 486.438C763.233 485.772 763.366 486.172 762.833 487.105C762.166 488.172 764.7 491.772 769.766 496.972C777.1 504.572 778.033 505.105 780.3 503.372C782.566 501.505 782.566 501.505 780.833 503.772C779.233 505.772 779.766 506.705 785.5 511.772C789.1 514.838 792.7 517.238 793.633 517.238C794.566 517.105 794.966 517.638 794.566 518.305C794.166 518.972 794.966 519.905 796.566 520.305C798.033 520.705 799.1 521.505 798.7 522.038C798.3 522.572 798.966 523.372 799.9 523.772C800.966 524.172 806.033 527.505 811.1 531.238C823.5 540.305 839.1 548.972 840.966 547.905C841.9 547.238 842.033 547.505 841.366 548.705C840.566 550.038 840.833 550.305 842.566 549.638C843.766 549.105 844.566 549.238 844.166 549.905C843.5 550.972 857.766 558.038 864.7 560.038C866.566 560.572 868.3 561.505 868.7 561.905C870.033 563.772 900.566 572.572 918.033 576.305C935.233 579.905 937.5 580.038 972.033 579.905C1006.03 579.905 1008.97 579.638 1024.7 576.305C1042.03 572.572 1072.83 563.638 1074.03 562.038C1074.43 561.505 1076.17 560.572 1078.03 560.038C1084.97 558.038 1099.23 550.972 1098.57 549.905C1098.17 549.238 1098.97 549.105 1100.17 549.638C1101.9 550.305 1102.17 550.038 1101.37 548.705C1100.7 547.505 1100.83 547.238 1101.77 547.905C1103.63 548.972 1119.23 540.305 1131.63 531.238C1136.7 527.505 1141.77 524.172 1142.83 523.772C1143.77 523.372 1144.43 522.572 1144.03 522.038C1143.63 521.505 1144.7 520.705 1146.17 520.305C1147.77 519.905 1148.57 518.972 1148.03 518.172C1147.63 517.372 1148.03 516.972 1148.97 517.372C1151.63 518.438 1181.37 489.638 1180.03 487.372C1179.37 486.305 1179.5 485.905 1180.3 486.438C1182.03 487.505 1186.43 482.838 1185.1 481.372C1184.43 480.838 1184.7 480.705 1185.63 481.238C1187.5 482.305 1190.43 477.638 1188.97 476.038C1188.43 475.372 1188.7 475.372 1189.5 475.772C1191.5 476.972 1198.3 467.905 1215.1 441.372C1216.83 438.572 1227.63 416.438 1232.43 406.038C1233.9 402.705 1235.77 397.238 1236.57 394.038C1237.5 390.705 1238.97 385.905 1240.03 383.372C1241.77 379.372 1243.9 370.972 1248.7 347.905C1253.63 324.572 1252.97 269.505 1247.37 250.705C1246.7 248.438 1245.5 243.105 1244.7 238.705C1241.77 223.505 1231.37 194.705 1222.43 176.705C1213.1 158.305 1199.63 137.772 1197.63 138.972C1196.97 139.372 1196.7 139.105 1197.1 138.305C1197.63 137.638 1196.03 134.572 1193.5 131.638C1190.03 127.372 1188.7 126.572 1187.23 127.772C1185.77 129.105 1185.77 128.972 1187.23 126.972C1188.83 124.972 1188.3 123.905 1182.3 117.638C1178.57 113.905 1174.17 108.972 1172.57 106.972C1167.63 100.438 1135.1 74.0383 1132.3 74.1716C1131.77 74.1716 1130.17 72.9716 1128.97 71.505C1126.3 68.4383 1107.23 57.3716 1091.37 49.905C1076.57 42.705 1051.37 33.7716 1048.3 34.5716C1047.1 34.8383 1046.3 34.705 1046.7 34.0383C1047.1 33.505 1044.43 32.5716 1040.97 32.0383C1037.5 31.5049 1034.17 30.7049 1033.37 30.0383C1028.83 26.5716 969.233 22.4383 948.7 24.1716Z" fill="#595959"/>
<path d="M484.699 327.638C484.699 340.572 489.099 377.372 492.833 396.038C506.166 463.238 530.433 521.905 567.766 576.705C633.766 673.772 732.433 742.972 846.033 772.038C864.966 776.972 879.099 779.638 902.033 782.972C921.366 785.772 995.233 786.838 1020.03 784.705C1076.43 779.905 1130.17 765.105 1186.7 738.572C1219.63 723.105 1276.03 685.238 1296.17 664.972C1298.57 662.705 1301.1 660.572 1302.03 660.438C1303.23 660.172 1303.63 683.505 1303.5 766.972L1303.23 874.038H1380.7H1458.03V598.038V322.038H1390.03C1326.17 322.038 1322.03 322.172 1322.03 324.305C1321.9 326.572 1319.77 342.572 1318.83 348.038C1318.57 349.505 1317.63 354.838 1316.83 359.772C1305.5 426.972 1272.43 491.772 1224.3 540.572C1212.43 552.572 1192.43 570.572 1182.7 577.772C1134.83 613.372 1077.23 636.438 1016.7 644.305C996.699 646.838 954.033 647.105 934.699 644.838C876.699 637.905 822.699 617.638 774.033 584.305C735.899 558.172 694.033 512.838 672.166 474.038C666.966 464.972 650.033 430.038 650.033 428.572C650.033 427.905 648.833 424.838 647.499 421.638C639.099 403.372 629.366 361.372 626.699 331.638L625.766 322.038H555.233H484.699V327.638Z" fill="#727773"/>
<path d="M155.367 873.372V886.038H264.701H374.034V873.372V860.705H264.701H155.367V873.372Z" fill="#595959"/>
<path d="M1699.37 958.038V1042.04H1597.37H1495.37V977.638L1495.23 913.372L1478.57 930.705C1469.37 940.172 1459.9 950.438 1457.37 953.372L1452.83 958.838L1452.43 1000.04L1452.03 1041.37L1387.1 1041.77L1322.03 1042.04V982.038V922.038H1211.77C1122.3 922.038 1100.03 922.438 1094.43 923.905C1078.97 928.038 1068.17 936.038 1060.83 948.972L1056.7 956.038V998.972V1042.04H984.699H912.699V958.705V875.372H890.699H868.699V958.705V1042.17L871.899 1048.44C875.766 1056.17 884.833 1064.7 893.899 1069.24C909.366 1077.1 880.166 1076.7 1330.43 1076.7H1743.37V975.372V874.038H1721.37H1699.37V958.038ZM1276.7 998.705V1042.04H1190.03H1103.37V998.705V955.372H1190.03H1276.7V998.705Z" fill="#595959"/>
<path d="M1790.04 976.038V1076.7H1812.04H1834.04V976.038V875.371H1812.04H1790.04V976.038Z" fill="#595959"/>
<path d="M144.699 924.171C130.833 927.905 119.233 936.971 112.299 949.238L108.699 955.771V1016.17V1076.7H459.899C653.099 1076.7 811.499 1076.3 811.766 1075.64C812.033 1075.1 812.033 1040.3 811.633 998.305L810.966 922.038H700.833C579.233 922.038 581.899 921.905 567.499 930.438C560.299 934.838 554.033 941.371 548.966 950.438C546.166 955.371 546.033 956.838 546.033 998.838V1042.04H460.033H374.033V982.038V922.038L263.099 922.171C169.766 922.171 150.833 922.571 144.699 924.171ZM328.433 998.971L328.699 1042.04H242.033H155.366V998.705V955.371L241.766 955.638L328.033 956.038L328.433 998.971ZM765.766 998.971L766.033 1042.04H679.366H592.699V998.705V955.371L679.099 955.638L765.366 956.038L765.766 998.971Z" fill="#595959"/>
<path d="M1360.7 1121.37V1134.04H1470.03H1579.37V1121.37V1108.7H1470.03H1360.7V1121.37Z" fill="#595959"/>
<path d="M312.699 1221.64C312.699 1273.37 313.899 1288.3 319.099 1303.5C326.166 1323.5 341.366 1336.84 361.899 1340.7C366.033 1341.5 392.299 1342.04 424.166 1342.04H479.366V1321.37V1300.84L428.433 1300.44L377.366 1300.04L371.366 1296.7C367.099 1294.3 364.433 1291.64 362.433 1287.37C359.366 1281.5 359.366 1280.84 359.366 1227.1V1172.7H336.033H312.699V1221.64Z" fill="#595959"/>
<path d="M505.101 1195.64C505.501 1208.7 506.701 1222.7 507.901 1227.9C512.434 1248.04 522.967 1263.24 538.034 1271.24C551.101 1278.3 559.501 1279.37 601.634 1279.37H639.234L637.901 1283.1C636.034 1288.57 629.101 1294.84 622.034 1297.64C616.967 1299.5 610.301 1300.04 579.767 1300.44L543.367 1300.84V1321.5V1342.04H582.567C611.767 1342.04 624.434 1341.5 632.301 1340.04C659.501 1334.84 677.234 1317.9 685.634 1289.24C687.501 1282.57 687.901 1273.64 688.434 1227.64L688.834 1174.04H664.834H640.701V1205.37V1236.84L603.501 1236.44C568.301 1236.04 566.034 1235.9 562.567 1233.24C553.767 1226.7 553.367 1225.5 552.967 1197.9L552.567 1172.7H528.434H504.301L505.101 1195.64Z" fill="#595959"/>
<path d="M158.966 1175.5C139.9 1180.04 120.7 1198.7 112.566 1220.84C109.5 1229.24 109.5 1230.44 108.966 1285.64L108.566 1342.04H131.9H155.366V1328.04V1314.04H197.366H239.366V1328.04V1342.04H262.7H286.033V1258.04V1174.04L225.1 1174.17C191.5 1174.3 161.766 1174.84 158.966 1175.5ZM239.366 1244.04V1274.04H197.366H155.366V1258.3C155.366 1234.57 160.433 1223.77 174.566 1217.24C181.1 1214.17 182.7 1214.04 210.433 1214.04H239.366V1244.04Z" fill="#595959"/>
<path d="M765.634 1175.5C746.568 1180.04 727.368 1198.7 719.234 1220.84C716.168 1229.24 716.168 1230.44 715.634 1285.64L715.234 1342.04H738.568H762.034V1328.04V1314.04H804.034H846.034V1328.04V1342.04H869.368H892.701V1258.04V1174.04L831.768 1174.17C798.168 1174.3 768.434 1174.84 765.634 1175.5ZM846.034 1244.04V1274.04H804.034H762.034V1258.3C762.034 1234.57 767.101 1223.77 781.234 1217.24C787.768 1214.17 789.368 1214.04 817.101 1214.04H846.034V1244.04Z" fill="#595959"/>
<path d="M918.031 1258.04V1342.04H942.031H966.031V1278.04V1214.04H980.431C996.698 1214.04 1002.96 1215.37 1008.7 1220.17C1016.16 1226.57 1016.7 1231.24 1016.7 1289.64V1342.04H1040.16H1063.5L1063.1 1284.3C1062.7 1235.24 1062.3 1225.77 1060.43 1220.17L1058.16 1213.77L1074.43 1214.3C1092.83 1214.97 1100.96 1217.77 1106.7 1225.24C1112.3 1232.7 1112.7 1237.37 1112.7 1290.97V1342.04H1136.16H1159.5L1159.1 1284.97C1158.7 1228.57 1158.7 1227.9 1155.5 1220.04C1149.23 1204.17 1134.96 1186.57 1123.63 1180.84C1110.43 1174.04 1109.36 1174.04 1010.43 1174.04H918.031V1258.04Z" fill="#595959"/>
<path d="M1236.3 1175.5C1217.23 1180.04 1198.03 1198.7 1189.9 1220.84C1186.83 1229.24 1186.83 1230.44 1186.3 1285.64L1185.9 1342.04H1209.23H1232.7V1328.04V1314.04H1274.7H1316.7V1328.04V1342.04H1340.03H1363.37V1258.04V1174.04L1302.43 1174.17C1268.83 1174.3 1239.1 1174.84 1236.3 1175.5ZM1316.7 1244.04V1274.04H1274.7H1232.7V1258.3C1232.7 1234.57 1237.77 1223.77 1251.9 1217.24C1258.43 1214.17 1260.03 1214.04 1287.77 1214.04H1316.7V1244.04Z" fill="#595959"/>
<path d="M1388.7 1258.04V1342.04H1412.7H1436.7V1278.04V1214.04H1451.1C1467.37 1214.04 1473.63 1215.37 1479.37 1220.17C1486.83 1226.57 1487.37 1231.24 1487.37 1289.64V1342.04H1510.83H1534.17L1533.77 1284.3C1533.37 1235.24 1532.97 1225.77 1531.1 1220.17L1528.83 1213.77L1545.1 1214.3C1563.5 1214.97 1571.63 1217.77 1577.37 1225.24C1582.97 1232.7 1583.37 1237.37 1583.37 1290.97V1342.04H1606.83H1630.17L1629.77 1284.97C1629.37 1228.57 1629.37 1227.9 1626.17 1220.04C1619.9 1204.17 1605.63 1186.57 1594.3 1180.84C1581.1 1174.04 1580.03 1174.04 1481.1 1174.04H1388.7V1258.04Z" fill="#595959"/>
<path d="M1656.7 1258.04V1342.04H1680.7H1704.7V1328.04V1314.04H1746.03H1787.37V1328.04V1342.04H1810.83H1834.17L1833.77 1285.64C1833.23 1221.1 1833.37 1221.77 1820.43 1202.44C1813.1 1191.64 1804.43 1184.3 1792.03 1178.44L1784.03 1174.7L1720.43 1174.3L1656.7 1173.9V1258.04ZM1764.83 1215.5C1772.57 1217.9 1779.23 1224.17 1783.5 1233.24C1787.1 1240.84 1787.37 1242.44 1787.37 1257.64V1274.04H1746.03H1704.7V1244.04V1214.04H1732.17C1748.97 1214.04 1761.77 1214.57 1764.83 1215.5Z" fill="#595959"/>
</svg>
