<svg width="2746" height="750" viewBox="0 0 2746 750" fill="none" xmlns="http://www.w3.org/2000/svg">
<path d="M2255.33 62.5955C2246.85 63.2955 2230.31 65.833 2229.52 66.4455C2229.08 66.883 2226.81 67.408 2224.53 67.758C2222.26 68.108 2220.51 68.7205 2220.77 69.0705C2221.03 69.508 2220.51 69.5955 2219.72 69.4205C2217.71 68.8955 2201.17 74.758 2191.46 79.483C2181.05 84.3831 2168.53 91.6456 2166.78 93.6581C2166 94.6206 2165.12 95.3206 2164.95 95.1456C2163.72 94.3581 2140.8 113.346 2137.03 118.158C2135.81 119.821 2133.18 122.796 2131.08 124.896C2127.84 128.133 2127.49 128.746 2128.55 130.146C2129.51 131.371 2129.51 131.458 2128.55 130.583C2127.58 129.796 2126.71 130.321 2124.43 133.121C2122.77 135.046 2121.72 137.058 2122.07 137.496C2122.33 138.021 2122.16 138.196 2121.72 137.933C2120.41 137.146 2111.57 150.621 2105.44 162.696C2099.58 174.508 2092.76 193.408 2090.83 203.384C2090.31 206.271 2089.52 209.771 2089.08 211.259C2088.03 214.846 2086.63 226.046 2085.93 236.634C2085.41 245.296 2086.72 268.134 2088.21 275.046C2091.36 290.184 2092.76 295.696 2093.89 298.321C2094.59 299.984 2095.56 303.134 2096.17 305.321C2096.69 307.421 2097.92 311.009 2098.88 313.196C2102.03 320.021 2109.12 334.547 2110.26 336.384C2121.28 353.797 2125.74 359.747 2127.06 358.959C2127.58 358.697 2127.76 358.697 2127.41 359.134C2126.44 360.097 2128.37 363.247 2129.51 362.547C2130.03 362.197 2130.21 362.284 2129.95 362.809C2129.25 363.947 2132.31 366.834 2133.27 365.959C2133.62 365.522 2133.71 365.784 2133.36 366.397C2132.92 367.097 2134.58 369.459 2137.91 372.872C2142.72 377.859 2143.33 378.209 2144.82 377.072C2146.31 375.847 2146.31 375.847 2145.17 377.334C2144.12 378.647 2144.47 379.259 2148.23 382.584C2150.6 384.597 2152.96 386.172 2153.57 386.172C2154.18 386.084 2154.45 386.434 2154.18 386.872C2153.92 387.309 2154.45 387.922 2155.5 388.184C2156.46 388.447 2157.16 388.972 2156.9 389.322C2156.63 389.672 2157.07 390.197 2157.68 390.459C2158.38 390.722 2161.71 392.909 2165.03 395.359C2173.17 401.309 2183.41 406.997 2184.63 406.297C2185.25 405.859 2185.33 406.034 2184.9 406.822C2184.37 407.697 2184.55 407.872 2185.68 407.434C2186.47 407.084 2187 407.172 2186.73 407.609C2186.3 408.309 2195.66 412.947 2200.21 414.259C2201.43 414.609 2202.57 415.222 2202.83 415.484C2203.71 416.709 2223.75 422.484 2235.21 424.934C2246.5 427.297 2247.98 427.384 2270.65 427.297C2292.96 427.297 2294.88 427.122 2305.21 424.934C2316.58 422.484 2336.8 416.622 2337.58 415.572C2337.85 415.222 2338.98 414.609 2340.21 414.259C2344.76 412.947 2354.12 408.309 2353.68 407.609C2353.42 407.172 2353.95 407.084 2354.73 407.434C2355.87 407.872 2356.05 407.697 2355.52 406.822C2355.08 406.034 2355.17 405.859 2355.78 406.297C2357.01 406.997 2367.25 401.309 2375.38 395.359C2378.71 392.909 2382.03 390.722 2382.73 390.459C2383.35 390.197 2383.78 389.672 2383.52 389.322C2383.26 388.972 2383.96 388.447 2384.92 388.184C2385.97 387.922 2386.5 387.309 2386.15 386.784C2385.88 386.259 2386.15 385.997 2386.76 386.259C2388.51 386.959 2408.02 368.059 2407.15 366.572C2406.71 365.872 2406.8 365.609 2407.32 365.959C2408.46 366.659 2411.35 363.597 2410.47 362.634C2410.03 362.284 2410.21 362.197 2410.82 362.547C2412.05 363.247 2413.97 360.184 2413.01 359.134C2412.66 358.697 2412.83 358.697 2413.36 358.959C2414.67 359.747 2419.13 353.797 2430.16 336.384C2431.3 334.547 2438.38 320.021 2441.53 313.196C2442.5 311.009 2443.72 307.421 2444.25 305.321C2444.86 303.134 2445.82 299.984 2446.52 298.321C2447.66 295.696 2449.06 290.184 2452.21 275.046C2455.45 259.734 2455.01 223.596 2451.33 211.259C2450.9 209.771 2450.11 206.271 2449.58 203.384C2447.66 193.408 2440.83 174.508 2434.97 162.696C2428.85 150.621 2420.01 137.146 2418.7 137.933C2418.26 138.196 2418.08 138.021 2418.35 137.496C2418.7 137.058 2417.65 135.046 2415.98 133.121C2413.71 130.321 2412.83 129.796 2411.87 130.583C2410.91 131.458 2410.91 131.371 2411.87 130.058C2412.92 128.746 2412.57 128.046 2408.63 123.933C2406.18 121.483 2403.3 118.246 2402.25 116.933C2399.01 112.646 2377.66 95.3206 2375.82 95.4081C2375.47 95.4081 2374.42 94.6206 2373.63 93.6581C2371.88 91.6456 2359.37 84.3831 2348.96 79.483C2339.25 74.758 2322.71 68.8955 2320.7 69.4205C2319.91 69.5955 2319.38 69.508 2319.65 69.0705C2319.91 68.7205 2318.16 68.108 2315.88 67.758C2313.61 67.408 2311.42 66.883 2310.9 66.4455C2307.92 64.1705 2268.81 61.4579 2255.33 62.5955Z" fill="white"/>
<path d="M1950.83 261.746C1950.83 270.234 1953.72 294.384 1956.17 306.634C1964.92 350.734 1980.84 389.234 2005.34 425.197C2048.66 488.897 2113.41 534.31 2187.96 553.385C2200.38 556.622 2209.66 558.372 2224.71 560.56C2237.4 562.397 2285.87 563.097 2302.15 561.697C2339.16 558.547 2374.42 548.835 2411.52 531.422C2433.13 521.272 2470.15 496.422 2483.36 483.122C2484.93 481.634 2486.6 480.234 2487.21 480.147C2488 479.972 2488.26 495.285 2488.17 550.06L2488 620.323H2538.83H2589.58V439.197V258.071H2544.96C2503.05 258.071 2500.33 258.159 2500.33 259.559C2500.25 261.046 2498.85 271.546 2498.23 275.134C2498.06 276.096 2497.45 279.596 2496.92 282.834C2489.48 326.934 2467.78 369.459 2436.2 401.484C2428.41 409.359 2415.28 421.172 2408.9 425.897C2377.48 449.259 2339.68 464.397 2299.96 469.559C2286.83 471.222 2258.83 471.397 2246.15 469.909C2208.08 465.359 2172.65 452.059 2140.71 430.184C2115.68 413.034 2088.21 383.284 2073.86 357.822C2070.44 351.872 2059.33 328.946 2059.33 327.984C2059.33 327.546 2058.54 325.534 2057.67 323.434C2052.16 311.446 2045.77 283.884 2044.02 264.371L2043.41 258.071H1997.12H1950.83V261.746Z" fill="white"/>
<path d="M155.488 182.519V195.185H264.822H374.155V182.519V169.852H264.822H155.488V182.519Z" fill="white"/>
<path d="M1699.49 267.185V351.185H1597.49H1495.49V286.785L1495.35 222.519L1478.69 239.852C1469.49 249.319 1460.02 259.585 1457.49 262.519L1452.95 267.985L1452.55 309.185L1452.15 350.519L1387.22 350.919L1322.15 351.185V291.185V231.185H1211.89C1122.42 231.185 1100.15 231.585 1094.55 233.052C1079.09 237.185 1068.29 245.185 1060.95 258.119L1056.82 265.185V308.119V351.185H984.82H912.82V267.852V184.519H890.82H868.82V267.852V351.319L872.02 357.585C875.887 365.319 884.954 373.852 894.02 378.385C909.487 386.252 880.287 385.852 1330.55 385.852H1743.49V284.519V183.185H1721.49H1699.49V267.185ZM1276.82 307.852V351.185H1190.15H1103.49V307.852V264.519H1190.15H1276.82V307.852Z" fill="white"/>
<path d="M1790.16 285.185V385.852H1812.16H1834.16V285.185V184.519H1812.16H1790.16V285.185Z" fill="white"/>
<path d="M144.82 233.319C130.954 237.052 119.354 246.119 112.42 258.385L108.82 264.919V325.319V385.852H460.02C653.22 385.852 811.62 385.452 811.887 384.785C812.154 384.252 812.154 349.452 811.754 307.452L811.087 231.185H700.954C579.354 231.185 582.02 231.052 567.62 239.585C560.42 243.985 554.154 250.519 549.087 259.585C546.287 264.519 546.154 265.985 546.154 307.985V351.185H460.154H374.154V291.185V231.185L263.22 231.319C169.887 231.319 150.954 231.719 144.82 233.319ZM328.554 308.119L328.82 351.185H242.154H155.487V307.852V264.519L241.887 264.785L328.154 265.185L328.554 308.119ZM765.887 308.119L766.154 351.185H679.487H592.82V307.852V264.519L679.22 264.785L765.487 265.185L765.887 308.119Z" fill="white"/>
<path d="M1360.82 430.519V443.185H1470.15H1579.49V430.519V417.852H1470.15H1360.82V430.519Z" fill="white"/>
<path d="M312.82 530.785C312.82 582.519 314.02 597.452 319.22 612.652C326.287 632.652 341.487 645.985 362.02 649.852C366.154 650.652 392.42 651.185 424.287 651.185H479.487V630.519V609.985L428.554 609.585L377.487 609.185L371.487 605.852C367.22 603.452 364.554 600.785 362.554 596.519C359.487 590.652 359.487 589.985 359.487 536.252V481.852H336.154H312.82V530.785Z" fill="white"/>
<path d="M505.222 504.785C505.622 517.852 506.822 531.852 508.022 537.052C512.555 557.185 523.089 572.385 538.155 580.385C551.222 587.452 559.622 588.519 601.755 588.519H639.355L638.022 592.252C636.155 597.719 629.222 603.985 622.155 606.785C617.089 608.652 610.422 609.185 579.889 609.585L543.489 609.985V630.652V651.185H582.689C611.889 651.185 624.555 650.652 632.422 649.185C659.622 643.985 677.355 627.052 685.755 598.385C687.622 591.719 688.022 582.785 688.555 536.785L688.955 483.185H664.955H640.822V514.519V545.985L603.622 545.585C568.422 545.185 566.155 545.052 562.689 542.385C553.889 535.852 553.489 534.652 553.089 507.052L552.689 481.852H528.555H504.422L505.222 504.785Z" fill="white"/>
<path d="M159.088 484.652C140.021 489.185 120.821 507.852 112.688 529.985C109.621 538.385 109.621 539.585 109.088 594.785L108.688 651.185H132.021H155.488V637.185V623.185H197.488H239.488V637.185V651.185H262.821H286.154V567.185V483.185L225.221 483.319C191.621 483.452 161.888 483.985 159.088 484.652ZM239.488 553.185V583.185H197.488H155.488V567.452C155.488 543.719 160.554 532.919 174.688 526.385C181.221 523.319 182.821 523.185 210.554 523.185H239.488V553.185Z" fill="white"/>
<path d="M765.755 484.652C746.689 489.185 727.489 507.852 719.355 529.985C716.289 538.385 716.289 539.585 715.755 594.785L715.355 651.185H738.689H762.155V637.185V623.185H804.155H846.155V637.185V651.185H869.489H892.822V567.185V483.185L831.889 483.319C798.289 483.452 768.555 483.985 765.755 484.652ZM846.155 553.185V583.185H804.155H762.155V567.452C762.155 543.719 767.222 532.919 781.355 526.385C787.889 523.319 789.489 523.185 817.222 523.185H846.155V553.185Z" fill="white"/>
<path d="M918.152 567.185V651.185H942.152H966.152V587.185V523.185H980.552C996.819 523.185 1003.09 524.519 1008.82 529.319C1016.29 535.719 1016.82 540.385 1016.82 598.785V651.185H1040.29H1063.62L1063.22 593.452C1062.82 544.385 1062.42 534.919 1060.55 529.319L1058.29 522.919L1074.55 523.452C1092.95 524.119 1101.09 526.919 1106.82 534.385C1112.42 541.852 1112.82 546.519 1112.82 600.119V651.185H1136.29H1159.62L1159.22 594.119C1158.82 537.719 1158.82 537.052 1155.62 529.185C1149.35 513.319 1135.09 495.719 1123.75 489.985C1110.55 483.185 1109.49 483.185 1010.55 483.185H918.152V567.185Z" fill="white"/>
<path d="M1236.42 484.652C1217.35 489.185 1198.15 507.852 1190.02 529.985C1186.95 538.385 1186.95 539.585 1186.42 594.785L1186.02 651.185H1209.35H1232.82V637.185V623.185H1274.82H1316.82V637.185V651.185H1340.15H1363.49V567.185V483.185L1302.55 483.319C1268.95 483.452 1239.22 483.985 1236.42 484.652ZM1316.82 553.185V583.185H1274.82H1232.82V567.452C1232.82 543.719 1237.89 532.919 1252.02 526.385C1258.55 523.319 1260.15 523.185 1287.89 523.185H1316.82V553.185Z" fill="white"/>
<path d="M1388.82 567.185V651.185H1412.82H1436.82V587.185V523.185H1451.22C1467.49 523.185 1473.75 524.519 1479.49 529.319C1486.95 535.719 1487.49 540.385 1487.49 598.785V651.185H1510.95H1534.29L1533.89 593.452C1533.49 544.385 1533.09 534.919 1531.22 529.319L1528.95 522.919L1545.22 523.452C1563.62 524.119 1571.75 526.919 1577.49 534.385C1583.09 541.852 1583.49 546.519 1583.49 600.119V651.185H1606.95H1630.29L1629.89 594.119C1629.49 537.719 1629.49 537.052 1626.29 529.185C1620.02 513.319 1605.75 495.719 1594.42 489.985C1581.22 483.185 1580.15 483.185 1481.22 483.185H1388.82V567.185Z" fill="white"/>
<path d="M1656.82 567.185V651.185H1680.82H1704.82V637.185V623.185H1746.15H1787.49V637.185V651.185H1810.95H1834.29L1833.89 594.785C1833.35 530.252 1833.49 530.919 1820.55 511.585C1813.22 500.785 1804.55 493.452 1792.15 487.585L1784.15 483.852L1720.55 483.452L1656.82 483.052V567.185ZM1764.95 524.652C1772.69 527.052 1779.35 533.319 1783.62 542.385C1787.22 549.985 1787.49 551.585 1787.49 566.785V583.185H1746.15H1704.82V553.185V523.185H1732.29C1749.09 523.185 1761.89 523.719 1764.95 524.652Z" fill="white"/>
</svg>
