<svg width="79" height="80" viewBox="0 0 79 80" fill="none" xmlns="http://www.w3.org/2000/svg">
<path d="M43.6802 69.402H20.2137C17.6218 69.402 15.1361 68.3724 13.3033 66.5396C11.4706 64.7069 10.4409 62.2211 10.4409 59.6292V31.9395C10.4409 29.7796 11.2989 27.7082 12.8262 26.1809C14.3535 24.6536 16.425 23.7955 18.5849 23.7955H64.0611C66.221 23.7955 68.2925 24.6536 69.8198 26.1809C71.3471 27.7082 72.2051 29.7796 72.2051 31.9395V43.5028" stroke="white" stroke-width="4" stroke-linecap="square" stroke-linejoin="round"/>
<path d="M38.9658 69.402H62.4323C65.0242 69.402 67.5099 68.3724 69.3427 66.5396C71.1754 64.7069 72.2051 62.2211 72.2051 59.6292V31.9395C72.2051 29.7796 71.3471 27.7082 69.8198 26.1809C68.2925 24.6536 66.221 23.7955 64.0611 23.7955H18.5849C16.4249 23.7955 14.3535 24.6536 12.8262 26.1809C11.2989 27.7082 10.4409 29.7796 10.4409 31.9395V43.5028" stroke="white" stroke-width="4" stroke-linecap="square" stroke-linejoin="round"/>
<path d="M51.1609 23.7956V17.2803C51.1609 15.5524 50.4745 13.8952 49.2526 12.6734C48.0308 11.4516 46.3736 10.7651 44.6457 10.7651H34.8729C33.1449 10.7651 31.4878 11.4516 30.2659 12.6734C29.0441 13.8952 28.3577 15.5524 28.3577 17.2803V23.7956" stroke="white" stroke-width="4" stroke-linecap="square" stroke-linejoin="round"/>
<path d="M70.6046 38.0013H10.4409" stroke="white" stroke-width="4" stroke-linecap="square" stroke-linejoin="round"/>
</svg>
