<svg width="684" height="210" viewBox="0 0 684 210" fill="none" xmlns="http://www.w3.org/2000/svg">
<path d="M198.959 209.374H267.675L332.095 0.536865H309.015L198.959 209.374Z" fill="white"/>
<path d="M365.018 0.558594H341.959L406.379 209.374H475.095L365.018 0.558594Z" fill="white"/>
<path d="M11.1776 168.807V209.22H126.362C142.884 209.092 158.677 202.408 170.269 190.636C181.861 178.865 188.302 162.972 188.174 146.453C188.046 129.934 181.36 114.142 169.587 102.552C157.815 90.9617 141.919 84.5221 125.398 84.65H63.4545C57.7186 84.6442 52.2193 82.3634 48.1633 78.308C44.1074 74.2527 41.8262 68.7541 41.8204 63.019V62.5368C41.8262 56.8017 44.1074 51.3031 48.1633 47.2478C52.2193 43.1924 57.7186 40.9116 63.4545 40.9058H167.329V0.448975H62.1175C45.7578 0.707733 30.1552 7.38488 18.6741 19.0405C7.19314 30.6962 0.753596 46.3966 0.744141 62.756C0.767377 79.2927 7.35528 95.1438 19.0604 106.827C30.7656 118.51 46.6305 125.069 63.1696 125.063H125.113C130.845 125.069 136.341 127.347 140.396 131.397C144.452 135.448 146.735 140.941 146.747 146.672V147.286C146.741 153.021 144.46 158.519 140.404 162.575C136.348 166.63 130.849 168.911 125.113 168.917L11.1776 168.807Z" fill="white"/>
<path d="M507.688 209.374H547.142C547.276 209.374 547.404 209.321 547.499 209.226C547.593 209.131 547.646 209.003 547.646 208.87V41.366C547.646 41.2382 547.697 41.1155 547.788 41.0251C547.878 40.9347 548.001 40.8839 548.129 40.8839H618.27C624.135 40.8839 629.761 43.2137 633.908 47.3607C638.056 51.5077 640.386 57.1323 640.386 62.9971C640.38 68.7322 638.099 74.2308 634.043 78.2861C629.987 82.3415 624.488 84.6223 618.752 84.6281H569.741C569.654 84.6289 569.568 84.6521 569.493 84.6957C569.418 84.7392 569.355 84.8015 569.311 84.8766C569.266 84.9516 569.243 85.0368 569.241 85.1238C569.24 85.2109 569.261 85.2968 569.302 85.3732L639.553 208.65C639.596 208.729 639.659 208.795 639.736 208.842C639.813 208.888 639.901 208.913 639.991 208.913H683.501C683.588 208.913 683.673 208.889 683.748 208.846C683.824 208.802 683.887 208.74 683.931 208.665C683.975 208.59 683.999 208.505 684 208.418C684.002 208.331 683.981 208.245 683.939 208.168L637.449 127.737L635.257 123.726C635.221 123.664 635.198 123.595 635.192 123.524C635.186 123.452 635.196 123.38 635.221 123.313C635.246 123.246 635.286 123.185 635.338 123.135C635.39 123.085 635.452 123.048 635.52 123.025L639.904 121.469C646.148 119.241 652 116.038 657.242 111.979C667.221 104.242 674.614 93.6557 678.441 81.6229C682.269 69.5901 682.349 56.6787 678.672 44.5992C674.995 32.5196 667.735 21.8422 657.852 13.9812C647.969 6.12034 635.931 1.44704 623.333 0.580471C622.215 0.580471 621.141 0.470891 620.001 0.448975H507.776C507.642 0.448975 507.514 0.502082 507.419 0.596613C507.325 0.691144 507.271 0.819353 507.271 0.95304V208.87C507.271 209.003 507.325 209.131 507.419 209.226C507.514 209.321 507.642 209.374 507.776 209.374" fill="white"/>
</svg>
