<svg width="242" height="38" viewBox="0 0 242 38" fill="none" xmlns="http://www.w3.org/2000/svg">
<path d="M92.8164 31.1428L93.1476 29.6022C93.888 29.9039 94.6772 30.0674 95.4763 30.0846C96.4595 30.0846 96.9485 29.7475 96.9485 29.068C96.9609 28.9109 96.9332 28.7533 96.868 28.6099C96.8028 28.4665 96.7023 28.3421 96.5759 28.2484C96.1518 27.997 95.6969 27.8018 95.2227 27.6675C94.5613 27.4702 93.9522 27.1273 93.44 26.6638C93.2324 26.4436 93.0719 26.1833 92.9682 25.8988C92.8646 25.6143 92.8199 25.3115 92.8371 25.0091C92.8168 24.654 92.8783 24.299 93.017 23.9715C93.1556 23.6441 93.3676 23.3531 93.6366 23.1211C94.1696 22.675 94.9226 22.4519 95.8954 22.4519C96.7149 22.4349 97.5286 22.5913 98.2836 22.911L97.9266 24.423C97.3177 24.1725 96.6674 24.0388 96.0093 24.0288C95.1218 24.0288 94.6768 24.34 94.6768 24.9573C94.6672 25.0938 94.6898 25.2308 94.7428 25.3569C94.7959 25.4831 94.8778 25.595 94.9821 25.6834C95.3309 25.9159 95.7119 26.0959 96.1128 26.2177C96.5449 26.3707 96.889 26.5134 97.1788 26.6456C97.4719 26.7837 97.7465 26.9579 97.9964 27.1643C98.2561 27.369 98.4592 27.6368 98.5864 27.9424C98.721 28.2929 98.7861 28.6665 98.7778 29.042C98.7966 29.4107 98.7262 29.7785 98.5726 30.114C98.4189 30.4496 98.1867 30.7429 97.8955 30.969C97.2131 31.4525 96.3886 31.6926 95.5539 31.6511C94.613 31.6785 93.6774 31.5015 92.8112 31.1324" fill="black"/>
<path d="M105.547 31.5111L105.014 29.5504H101.74C101.568 30.1452 101.39 30.7987 101.207 31.5111H99.3419C100.356 27.7868 101.384 24.8181 102.426 22.605H104.318C105.39 24.8873 106.425 27.856 107.422 31.5111H105.547ZM103.378 24.5397C102.908 25.6702 102.51 26.8292 102.186 28.0098H104.558C104.235 26.8337 103.841 25.6783 103.378 24.5501" fill="black"/>
<path d="M107.743 27.9735V22.605H109.554V27.8464C109.554 29.3213 110.125 30.0587 111.267 30.0587C112.409 30.0587 112.976 29.3213 112.967 27.8464V22.605H114.779V27.9735C114.779 29.17 114.478 30.0838 113.876 30.7149C113.273 31.3459 112.402 31.6624 111.262 31.6641C110.12 31.6641 109.247 31.3477 108.641 30.7149C108.036 30.082 107.733 29.1683 107.733 27.9735" fill="black"/>
<path d="M116.553 31.5111V22.605H119.521C120.868 22.605 121.941 23.0009 122.74 23.7928C123.539 24.5847 123.938 25.6644 123.938 27.0321C123.938 28.4153 123.536 29.5072 122.732 30.3077C121.928 31.1082 120.857 31.5093 119.519 31.5111H116.553ZM119.472 24.1559H118.367V29.9576H119.472C121.197 29.9576 122.06 28.9824 122.06 27.0321C122.06 25.1164 121.197 24.1576 119.472 24.1559Z" fill="black"/>
<path d="M127.139 22.605H125.322V31.5111H127.139V22.605Z" fill="black"/>
<path d="M137.406 31.5111L136.875 29.5504H133.6C133.427 30.1452 133.248 30.7987 133.064 31.5111H131.198C132.223 27.7937 133.253 24.825 134.288 22.605H136.177C137.253 24.8873 138.288 27.856 139.282 31.5111H137.406ZM135.235 24.5397C134.767 25.6711 134.369 26.8299 134.042 28.0098H136.417C136.093 26.8339 135.698 25.6786 135.235 24.5501" fill="black"/>
<path d="M142.749 28.2018H142.205V31.5111H140.376V22.605H142.992C144.092 22.605 144.955 22.8341 145.579 23.2923C145.884 23.5162 146.128 23.8123 146.29 24.154C146.452 24.4957 146.527 24.8724 146.508 25.2504C146.508 26.5315 145.92 27.3252 144.744 27.6312C145.125 27.792 145.476 28.1862 145.797 28.8138L147.09 31.5111H145.137L143.929 28.9928C143.819 28.7555 143.654 28.5482 143.447 28.3885C143.244 28.2566 143.004 28.1914 142.762 28.2018M142.914 24.1559H142.205V26.6768H142.901C144.054 26.6768 144.629 26.2523 144.627 25.4034C144.646 25.2186 144.616 25.032 144.541 24.8623C144.466 24.6926 144.347 24.5456 144.198 24.436C143.801 24.2239 143.353 24.1269 142.904 24.1559" fill="black"/>
<path d="M153.779 31.5111L153.246 29.5504H149.973C149.8 30.1452 149.623 30.7987 149.44 31.5111H147.574C148.588 27.7868 149.617 24.8181 150.658 22.605H152.55C153.625 24.8873 154.659 27.856 155.655 31.5111H153.779ZM151.624 24.5397C151.149 25.6702 150.746 26.8291 150.415 28.0098H152.79C152.471 26.8308 152.081 25.6721 151.624 24.5397Z" fill="black"/>
<path d="M159.758 31.5111H156.749V22.605H159.492C160.515 22.605 161.316 22.8004 161.896 23.1911C162.176 23.3754 162.403 23.6297 162.556 23.9289C162.708 24.2281 162.78 24.562 162.765 24.8976C162.784 25.2647 162.704 25.6301 162.532 25.9549C162.36 26.2796 162.103 26.5515 161.79 26.7416C162.2 26.9167 162.546 27.215 162.78 27.5954C163.014 27.9759 163.124 28.4197 163.096 28.8657C163.096 29.7388 162.802 30.3967 162.214 30.8394C161.626 31.282 160.807 31.5024 159.758 31.5007M158.514 24.1455V26.2955H159.808C160.572 26.2955 160.953 25.9229 160.951 25.1777C160.951 24.4861 160.465 24.1403 159.492 24.1403L158.514 24.1455ZM158.514 27.6701V29.9472H159.606C160.042 29.9731 160.478 29.8837 160.868 29.6878C161.01 29.5988 161.125 29.4723 161.2 29.3223C161.275 29.1722 161.307 29.0044 161.293 28.8372C161.293 28.0557 160.781 27.6649 159.758 27.6649L158.514 27.6701Z" fill="black"/>
<path d="M166.271 22.605H164.455V31.5111H166.271V22.605Z" fill="black"/>
<path d="M173.581 31.5111L173.047 29.5504H169.772C169.593 30.1443 169.417 30.7979 169.239 31.5111H167.373C168.388 27.7868 169.416 24.8181 170.457 22.605H172.349C173.424 24.8873 174.459 27.856 175.454 31.5111H173.581ZM171.41 24.5397C170.94 25.6702 170.541 26.8292 170.217 28.0098H172.582C172.259 26.8337 171.865 25.6783 171.402 24.5501" fill="black"/>
<path d="M181.881 28.2018H181.335V31.5111H179.508V22.605H182.122C183.222 22.605 184.085 22.8341 184.709 23.2923C185.013 23.5163 185.257 23.8125 185.419 24.1542C185.58 24.496 185.655 24.8726 185.635 25.2504C185.635 26.5315 185.047 27.3252 183.871 27.6312C184.25 27.792 184.601 28.1862 184.924 28.8138L186.218 31.5111H184.261L183.053 28.9928C182.944 28.755 182.779 28.5475 182.572 28.3885C182.369 28.257 182.13 28.1918 181.889 28.2018M182.041 24.1559H181.343V26.6768H182.041C183.19 26.6768 183.767 26.2514 183.767 25.4034C183.786 25.2183 183.756 25.0316 183.68 24.8619C183.604 24.6921 183.485 24.5453 183.335 24.436C182.938 24.2234 182.49 24.1264 182.041 24.1559Z" fill="black"/>
<path d="M192.911 31.5111L192.378 29.5504H189.103C188.924 30.1443 188.748 30.7979 188.57 31.5111H186.704C187.718 27.7937 188.746 24.825 189.788 22.605H191.68C192.754 24.8873 193.789 27.856 194.785 31.5111H192.911ZM190.74 24.5397C190.27 25.6702 189.872 26.8292 189.548 28.0098H191.92C191.597 26.8337 191.203 25.6783 190.74 24.5501" fill="black"/>
<path d="M197.695 22.605H195.882V31.5111H197.695V22.605Z" fill="black"/>
<path d="M199.525 31.5111V22.605H201.339V29.9576H204.93V31.5111H199.525Z" fill="black"/>
<path d="M213.321 29.7916C213.59 28.9945 213.882 27.9173 214.195 26.5601C214.509 25.2028 214.755 23.8844 214.933 22.605H216.785C216.185 26.2705 215.386 29.2392 214.387 31.5111H212.395C211.702 29.7076 211.15 27.8529 210.744 25.9636C210.328 27.8518 209.772 29.7062 209.08 31.5111H207.088C206.531 30.1421 206.067 28.7366 205.701 27.3044C205.28 25.6999 204.946 24.1334 204.7 22.605H206.539C206.736 23.9017 206.988 25.2313 207.295 26.5938C207.525 27.675 207.816 28.7426 208.164 29.7916C208.555 28.7055 208.89 27.6001 209.168 26.4797C209.498 25.2044 209.752 23.9106 209.929 22.605H211.554C211.74 23.9246 211.999 25.2329 212.33 26.5238C212.6 27.6304 212.931 28.7213 213.321 29.7916Z" fill="black"/>
<path d="M222.7 31.5111L222.167 29.5504H218.897C218.724 30.1452 218.547 30.7987 218.364 31.5111H216.498C217.514 27.7868 218.542 24.8181 219.582 22.605H221.474C222.547 24.8873 223.582 27.856 224.579 31.5111H222.7ZM220.529 24.5397C220.061 25.6706 219.662 26.8296 219.337 28.0098H221.709C221.386 26.8337 220.992 25.6783 220.529 24.5501" fill="black"/>
<path d="M227.435 31.5111H225.624V27.9476C224.179 25.8728 223.197 24.0919 222.68 22.605H224.545C225.068 23.9625 225.736 25.2591 226.537 26.4719C227.336 25.2591 228 23.9624 228.517 22.605H230.385C229.831 24.1334 228.848 25.9143 227.435 27.9476V31.5111Z" fill="black"/>
<path d="M230.926 31.1428L231.254 29.6022C231.995 29.9037 232.784 30.0671 233.583 30.0846C234.564 30.0846 235.055 29.7475 235.055 29.068C235.068 28.9106 235.04 28.7526 234.974 28.6092C234.909 28.4657 234.807 28.3415 234.68 28.2484C234.257 27.9969 233.803 27.8016 233.33 27.6675C232.668 27.4708 232.059 27.1278 231.547 26.6638C231.338 26.4441 231.177 26.1839 231.073 25.8993C230.969 25.6148 230.924 25.3118 230.941 25.0091C230.921 24.654 230.983 24.299 231.121 23.9715C231.26 23.6441 231.472 23.3531 231.741 23.1211C232.277 22.675 233.031 22.4519 234.002 22.4519C234.821 22.4349 235.634 22.5913 236.388 22.911L236.033 24.423C235.424 24.1729 234.774 24.0392 234.116 24.0288C233.226 24.0288 232.784 24.34 232.784 24.9573C232.773 25.0939 232.796 25.231 232.849 25.3573C232.902 25.4836 232.984 25.5954 233.089 25.6834C233.436 25.9166 233.817 26.0966 234.217 26.2177C234.649 26.3707 234.993 26.5134 235.283 26.6456C235.577 26.7835 235.853 26.9577 236.103 27.1643C236.363 27.369 236.566 27.6368 236.693 27.9424C236.827 28.2931 236.891 28.6667 236.882 29.042C236.901 29.4108 236.831 29.7788 236.678 30.1144C236.524 30.4501 236.291 30.7433 236 30.969C235.321 31.4497 234.501 31.6897 233.671 31.6511C232.731 31.6783 231.796 31.5013 230.931 31.1324" fill="black"/>
<path d="M27.8848 31.0624H35.9964L43.6008 6.34891H40.8789L27.8848 31.0624Z" fill="#00778B"/>
<path d="M47.4897 6.34891H44.7652L52.3722 31.0624H60.4812L47.4897 6.34891Z" fill="#00778B"/>
<path d="M5.71822 26.2592V31.0442H19.3152C21.2654 31.0291 23.1298 30.238 24.4982 28.8451C25.8666 27.4521 26.6268 25.5713 26.6117 23.6164C26.5966 21.6616 25.8074 19.7928 24.4177 18.4213C23.028 17.0497 21.1516 16.2876 19.2013 16.3028H11.9022C11.5663 16.3038 11.2334 16.2384 10.9227 16.1105C10.612 15.9825 10.3295 15.7943 10.0914 15.5569C9.85322 15.3194 9.66412 15.0372 9.53486 14.7264C9.4056 14.4156 9.33872 14.0823 9.33804 13.7456V13.6859C9.3377 13.3486 9.40382 13.0144 9.53263 12.7027C9.66143 12.3911 9.85037 12.1079 10.0886 11.8696C10.3268 11.6313 10.6097 11.4425 10.9209 11.314C11.2321 11.1855 11.5656 11.1199 11.9022 11.121H24.1511V6.33853H11.7444C9.81576 6.38653 7.98316 7.19201 6.64141 8.58143C5.29966 9.97085 4.55615 11.833 4.57108 13.7667C4.58601 15.7003 5.35819 17.5507 6.72123 18.9191C8.08428 20.2876 9.9291 21.0645 11.8582 21.0826H19.1677C19.5041 21.0812 19.8374 21.1464 20.1486 21.2744C20.4597 21.4024 20.7427 21.5907 20.9811 21.8285C21.2196 22.0663 21.4088 22.3489 21.5381 22.6602C21.6674 22.9715 21.7341 23.3052 21.7344 23.6424V23.702C21.7331 24.3803 21.4635 25.0303 20.9848 25.5096C20.5061 25.989 19.8573 26.2585 19.1806 26.2592H5.71822Z" fill="black"/>
<path d="M64.3288 31.0624H68.9861C69.0019 31.0624 69.0171 31.0561 69.0282 31.0449C69.0394 31.0337 69.0457 31.0186 69.0457 31.0027V11.1806C69.0457 11.1648 69.0519 11.1496 69.0631 11.1384C69.0742 11.1272 69.0894 11.1209 69.1052 11.1209H77.3849C78.0776 11.123 78.7411 11.4006 79.2297 11.8927C79.7182 12.3849 79.9919 13.0513 79.9905 13.7456C79.9898 14.424 79.7204 15.0744 79.2416 15.5539C78.7627 16.0334 78.1136 16.3028 77.4367 16.3028H71.6538C71.6435 16.3029 71.6334 16.3056 71.6245 16.3108C71.6156 16.3159 71.6082 16.3233 71.603 16.3322C71.5978 16.341 71.595 16.3511 71.5948 16.3614C71.5946 16.3717 71.5971 16.3819 71.602 16.3909L79.8818 30.9924C79.8872 31.0012 79.8948 31.0085 79.9039 31.0135C79.913 31.0185 79.9232 31.0211 79.9336 31.0209H85.0696C85.0799 31.0208 85.09 31.018 85.0989 31.0129C85.1078 31.0077 85.1152 31.0004 85.1204 30.9915C85.1256 30.9826 85.1285 30.9725 85.1286 30.9622C85.1288 30.9519 85.1263 30.9418 85.1214 30.9327L79.6464 21.4016L79.3876 20.927C79.3833 20.9195 79.3807 20.9111 79.38 20.9024C79.3792 20.8938 79.3804 20.8851 79.3833 20.877C79.3863 20.8688 79.391 20.8614 79.3971 20.8553C79.4032 20.8491 79.4106 20.8444 79.4187 20.8414L79.9362 20.6599C81.5306 20.0933 82.8815 18.9933 83.7613 17.5451C84.6411 16.0969 84.996 14.3889 84.7663 12.7091C84.5366 11.0292 83.7363 9.47996 82.5002 8.32241C81.2641 7.16487 79.6677 6.46973 77.9801 6.35409C77.8507 6.35409 77.7213 6.33853 77.5868 6.33853H64.3391C64.3314 6.33818 64.3237 6.33939 64.3165 6.3421C64.3093 6.34481 64.3027 6.34896 64.2972 6.3543C64.2916 6.35963 64.2872 6.36604 64.2842 6.37314C64.2811 6.38023 64.2796 6.38787 64.2796 6.39559V31.0027C64.2796 31.0186 64.2859 31.0337 64.297 31.0449C64.3082 31.0561 64.3233 31.0624 64.3391 31.0624" fill="black"/>
<path d="M97.0442 7.80905L98.0326 8.76087L99.2125 7.56526L98.0068 6.35669L97.0442 7.32147L96.0584 6.35669L94.8656 7.56526L96.0714 8.76087L97.0442 7.80905Z" fill="black"/>
<path d="M95.4297 14.8167C94.6845 14.8167 94.2628 14.4303 94.2628 13.8C94.2628 12.7964 95.1347 12.0001 96.7131 11.6915V13.8C96.7141 14.0537 96.7349 14.3069 96.7751 14.5573C96.3481 14.7317 95.8908 14.8198 95.4297 14.8167ZM99.2125 16.4739H100.266C102.136 16.4739 103.112 15.4832 103.112 13.9401C103.112 13.079 102.998 12.1039 102.726 10.2392H101.112C101.394 12.0546 101.497 12.952 101.497 13.673C101.497 14.394 101.2 14.783 100.266 14.783H99.2125C98.532 14.783 98.3276 14.4484 98.3276 13.883V9.55707H96.7131V10.2521C93.709 10.7397 92.6844 12.5526 92.6844 13.966C92.6844 15.5221 93.7349 16.4739 95.4038 16.4739C96.1102 16.4739 96.6975 16.2302 97.391 15.8308C97.8024 16.2431 98.4052 16.4739 99.2022 16.4739" fill="black"/>
<path d="M101.112 18.1727L100.149 17.2468L98.9564 18.4424L100.175 19.638L101.112 18.7121L102.059 19.638L103.254 18.4424L102.048 17.2468L101.112 18.1727Z" fill="black"/>
<path d="M106.165 10.2391C107.037 12.0546 107.523 13.5562 107.523 14.0308C107.523 14.5729 107.127 14.7778 106.204 14.7778C105.488 14.7658 104.777 14.6621 104.087 14.4691L103.779 16.0797C104.689 16.3395 105.63 16.473 106.576 16.4765C108.243 16.4765 109.115 15.6803 109.115 14.2772C109.115 13.4032 108.615 11.8471 107.821 10.2417L106.165 10.2391Z" fill="black"/>
<path d="M120.66 14.4821C120.181 13.6031 119.613 12.7757 118.965 12.0131C119.447 11.7987 119.965 11.6764 120.492 11.6526C121.493 11.6526 122.07 12.0909 122.07 12.7575C122.07 13.424 121.506 14.0957 120.66 14.4821ZM113.63 14.8167C112.336 14.8167 111.63 14.3265 111.63 13.3384C111.63 12.4385 112.245 11.8212 113.001 11.8212C113.756 11.8212 114.207 12.2958 114.271 13.2995C114.297 13.7741 114.336 14.2254 114.362 14.8037C114.168 14.8037 113.963 14.8167 113.63 14.8167ZM137.307 13.6704C137.307 14.4303 137.012 14.7778 136.078 14.7778C135.544 14.7892 135.017 14.6557 134.552 14.3914C134.76 13.516 134.855 12.6172 134.834 11.7175V10.8175H133.333V11.7175C133.333 12.939 133.268 13.7093 133.051 14.1735C132.857 14.5962 132.51 14.7778 131.933 14.7778C131.494 14.7763 131.06 14.6753 130.665 14.4821C130.9 13.5801 131.003 12.649 130.973 11.7175H129.473C129.473 12.939 129.408 13.7093 129.188 14.1735C128.996 14.5962 128.65 14.783 128.078 14.783C127.606 14.7772 127.141 14.6627 126.72 14.4484C126.934 13.5562 127.033 12.6401 127.014 11.7226H125.514C125.514 12.9442 125.449 13.7145 125.232 14.1787C125.159 14.375 125.024 14.5413 124.846 14.6508C124.668 14.7604 124.458 14.807 124.251 14.783H124.238C123.668 14.7921 123.098 14.7574 122.533 14.6792C122.875 14.3924 123.153 14.0359 123.347 13.6336C123.542 13.2312 123.649 12.792 123.661 12.3451C123.661 11.0328 122.468 9.99278 120.66 9.99278C119.545 9.99278 118.132 10.5115 116.683 11.4711L117.35 12.8197C117.477 12.7575 117.594 12.6926 117.71 12.6278C118.269 13.2449 118.76 13.9215 119.172 14.6455C118.342 14.7527 117.506 14.8004 116.67 14.7882H115.917C115.904 14.0801 115.891 13.6315 115.865 13.1802C115.762 11.2532 114.672 10.1588 113.068 10.1588C111.35 10.1588 110.067 11.5333 110.067 13.398C110.067 15.3146 111.389 16.4843 113.43 16.4843H114.302C114.02 17.2961 112.954 17.7811 111.159 17.7811V19.2464C114.354 19.2464 115.7 18.1286 115.92 16.4817H116.649C118.623 16.4817 119.55 16.3417 120.856 15.7867C121.908 16.2796 123.06 16.5177 124.22 16.4817H124.233C124.59 16.4986 124.947 16.432 125.274 16.2871C125.602 16.1421 125.891 15.9229 126.119 15.6466C126.965 16.212 127.516 16.4817 128.171 16.4817C128.521 16.4978 128.87 16.4345 129.192 16.2967C129.514 16.1588 129.801 15.9499 130.031 15.6855C130.852 16.225 131.39 16.4817 132.032 16.4817C132.403 16.4982 132.774 16.4265 133.113 16.2724C133.452 16.1182 133.75 15.8861 133.982 15.5947C134.537 16.1395 135.276 16.456 136.052 16.4817C137.923 16.4817 138.899 15.491 138.899 13.9505V7.15289H137.281L137.307 13.6704Z" fill="black"/>
<path d="M142.606 7.15289H140.989V16.4739H142.606V7.15289Z" fill="black"/>
<path d="M151.199 7.80905L152.188 8.76087L153.367 7.56526L152.162 6.35669L151.199 7.32147L150.213 6.35669L149.018 7.56526L150.226 8.76087L151.199 7.80905Z" fill="black"/>
<path d="M155.267 18.1727L154.304 17.2468L153.111 18.4424L154.33 19.638L155.267 18.7121L156.216 19.638L157.409 18.4424L156.203 17.2468L155.267 18.1727Z" fill="black"/>
<path d="M149.585 14.8167C148.839 14.8167 148.415 14.4303 148.415 13.8C148.415 12.7964 149.29 12.0001 150.865 11.6915V13.8C150.866 14.0538 150.888 14.3071 150.93 14.5573C150.503 14.7317 150.046 14.8198 149.585 14.8167ZM153.368 16.4739H154.421C156.291 16.4739 157.267 15.4832 157.267 13.9401C157.267 13.079 157.153 12.1039 156.881 10.2392H155.267C155.549 12.0546 155.65 12.952 155.65 13.673C155.65 14.394 155.355 14.783 154.421 14.783H153.368C152.687 14.783 152.483 14.4484 152.483 13.883V9.55707H150.865V10.2521C147.864 10.7397 146.839 12.5526 146.839 13.966C146.839 15.5221 147.89 16.4739 149.559 16.4739C150.265 16.4739 150.853 16.2302 151.546 15.8308C151.957 16.2431 152.56 16.4739 153.357 16.4739" fill="black"/>
<path d="M164.359 16.4739H165.412C167.285 16.4739 168.258 15.4832 168.258 13.9401C168.258 13.079 168.144 12.1039 167.875 10.2391H166.258C166.54 12.0546 166.644 12.9519 166.644 13.6729C166.644 14.3939 166.349 14.783 165.412 14.783H164.362C163.694 14.783 163.231 14.4095 163.001 13.6781C162.706 12.8015 162.524 11.5437 162.32 10.2443H160.654C160.872 11.5978 161.185 12.9341 161.59 14.2435L161.743 14.6403C160.58 14.8768 159.377 14.8197 158.242 14.4743L157.934 16.0797C158.657 16.3458 159.421 16.481 160.191 16.4791C161.019 16.4861 161.83 16.244 162.519 15.784C163.015 16.2497 163.675 16.4997 164.354 16.4791" fill="black"/>
<path d="M166.258 18.1727L165.296 17.2468L164.103 18.4424L165.321 19.638L166.258 18.7121L167.208 19.638L168.4 18.4424L167.195 17.2468L166.258 18.1727Z" fill="black"/>
<path d="M184.678 13.6704C184.678 14.4303 184.383 14.7778 183.446 14.7778C182.67 14.7778 182.241 14.5962 182.049 14.2876L182.445 14.2124L182.908 12.5655C180.559 11.9742 179.687 10.1484 177.751 10.1484C177.115 10.1746 176.494 10.3524 175.94 10.6671L176.388 12.1091C176.794 11.921 177.234 11.8203 177.682 11.8134C178.81 11.8134 179.438 12.6356 180.9 13.3436C179.389 13.9219 178.375 14.77 175.387 14.77C174.719 14.77 174.258 14.3965 174.026 13.6626C173.731 12.7886 173.552 11.5281 173.348 10.2314H171.679C171.885 11.5867 172.187 12.9257 172.582 14.2383L172.734 14.6351C172.238 14.7383 171.731 14.7861 171.223 14.7778C170.549 14.7718 169.879 14.6678 169.234 14.4692L168.926 16.0797C169.649 16.3461 170.414 16.4813 171.185 16.4791C172.013 16.4861 172.824 16.244 173.513 15.7841C173.758 16.015 174.047 16.1953 174.361 16.3145C174.676 16.4338 175.011 16.4897 175.348 16.4791C178.745 16.4791 179.286 15.2965 181.017 14.6014C181.169 15.8359 182.005 16.4791 183.428 16.4791C185.302 16.4791 186.274 15.4884 186.274 13.9479V7.15289H184.66L184.678 13.6704Z" fill="black"/>
<path d="M189.977 7.15289H188.36V16.4739H189.977V7.15289Z" fill="black"/>
<path d="M198.927 14.783C198.236 14.783 197.594 14.757 196.953 14.7052C199.248 12.1843 200.097 11.3336 201.251 11.3336C202.11 11.3336 202.751 11.9249 202.751 12.7367C202.751 13.9193 201.251 14.7804 198.927 14.7804M201.561 9.63488C200.2 9.63488 199.111 10.3792 197.147 12.5266C197.349 11.7104 197.466 10.875 197.494 10.0343V7.15289H195.869V13.979C195.726 14.1605 195.571 14.3265 195.418 14.4977C195.02 14.4458 194.642 14.368 194.252 14.2902L193.944 15.8852C195.533 16.2594 197.16 16.4534 198.792 16.4636C202.371 16.4636 204.358 14.8686 204.358 12.4903C204.358 10.859 203.191 9.6245 201.551 9.6245" fill="black"/>
<path d="M226.853 8.15657L225.647 6.96097L224.452 8.15657L225.658 9.35218L226.853 8.15657Z" fill="black"/>
<path d="M216.18 14.783H214.193C216.423 12.301 217.347 11.3362 218.475 11.3362C218.666 11.3242 218.858 11.3515 219.038 11.4166C219.218 11.4817 219.383 11.5831 219.522 11.7146C219.662 11.8462 219.773 12.0049 219.849 12.1812C219.924 12.3574 219.963 12.5474 219.963 12.7393C219.963 13.9219 218.462 14.783 216.18 14.783ZM208.894 14.8219C207.6 14.8219 206.894 14.3317 206.894 13.3436C206.894 12.4436 207.51 11.8264 208.265 11.8264C209.021 11.8264 209.471 12.301 209.535 13.3047C209.561 13.7793 209.6 14.2306 209.626 14.8089C209.432 14.8089 209.228 14.8219 208.894 14.8219ZM231.725 13.6756C231.725 14.4354 231.43 14.783 230.494 14.783C229.717 14.783 229.288 14.6014 229.096 14.2928L229.505 14.2124L229.966 12.5655C227.619 11.9742 226.747 10.1484 224.809 10.1484C224.173 10.1746 223.552 10.3524 222.998 10.6671L223.448 12.1091C223.854 11.9208 224.295 11.8201 224.742 11.8134C225.87 11.8134 226.499 12.6356 227.961 13.3436C226.447 13.9219 225.433 14.77 222.444 14.77H222.431C221.956 14.7786 221.486 14.6727 221.06 14.4614C221.44 13.8764 221.636 13.1908 221.624 12.4929C221.638 12.117 221.575 11.7423 221.439 11.3916C221.304 11.0409 221.098 10.7216 220.835 10.4534C220.572 10.1851 220.257 9.97343 219.909 9.83136C219.562 9.68929 219.189 9.61978 218.814 9.62709C217.52 9.62709 216.353 10.4051 214.506 12.5448C214.707 11.7194 214.822 10.8755 214.85 10.0265V7.15289H213.204V14.0827C213.026 14.3136 212.845 14.534 212.666 14.7778H211.191C211.178 14.0698 211.166 13.6211 211.14 13.1698C211.036 11.2428 209.947 10.1484 208.343 10.1484C206.625 10.1484 205.341 11.5229 205.341 13.3877C205.341 15.3043 206.663 16.4739 208.705 16.4739H209.582C209.3 17.2857 208.234 17.7707 206.438 17.7707V19.236C209.634 19.236 210.979 18.1182 211.199 16.4713H216.33C217.919 16.4713 219.228 16.0849 220.139 15.4054C220.858 16.1238 221.652 16.4713 222.408 16.4713H222.421C225.821 16.4713 226.359 15.2887 228.09 14.5937C228.245 15.8282 229.078 16.4713 230.501 16.4713C232.375 16.4713 233.348 15.4806 233.348 13.9401V7.15289H231.73L231.725 13.6756Z" fill="black"/>
<path d="M237.024 7.15289H235.407V16.4739H237.024V7.15289Z" fill="black"/>
</svg>
