<svg width="2053" height="285" viewBox="0 0 2053 285" fill="none" xmlns="http://www.w3.org/2000/svg">
<g clip-path="url(#clip0_134_163)">
<path d="M67.6166 242.445L70.4162 229.304C76.7424 231.889 83.4912 233.286 90.324 233.425C98.7227 233.425 102.922 230.548 102.922 224.794C103.039 223.448 102.802 222.095 102.236 220.868C101.67 219.641 100.794 218.582 99.6947 217.797C96.0397 215.647 92.1179 213.987 88.03 212.859C82.3815 211.165 77.1769 208.245 72.788 204.306C71.0201 202.433 69.653 200.219 68.7705 197.799C67.888 195.379 67.5086 192.804 67.6555 190.233C67.4924 187.206 68.0243 184.182 69.2105 181.392C70.3967 178.602 72.2056 176.121 74.4989 174.138C80.0485 170.044 86.8624 168.035 93.7457 168.462C100.734 168.326 107.673 169.65 114.12 172.349L111.087 185.257C105.891 183.117 100.337 181.983 94.7178 181.913C87.1357 181.913 83.3641 184.518 83.3641 189.688C83.2827 190.851 83.4762 192.016 83.9287 193.09C84.3813 194.164 85.0803 195.116 85.9692 195.87C88.9452 197.847 92.1937 199.379 95.6121 200.419C99.267 201.689 102.3 202.894 104.711 204.034C107.197 205.232 109.533 206.719 111.671 208.466C113.909 210.233 115.651 212.551 116.725 215.192C117.877 218.178 118.431 221.361 118.358 224.561C118.522 227.702 117.921 230.836 116.608 233.693C115.294 236.551 113.306 239.047 110.815 240.967C104.986 245.073 97.9511 247.112 90.8295 246.76C82.8244 246.981 74.8662 245.469 67.5 242.328" fill="white"/>
<path d="M176.216 245.555L171.667 228.877H143.866C142.336 233.931 140.82 239.49 139.316 245.555H123.258C129.909 219.61 138.714 194.265 149.581 169.784H165.718C176.669 194.243 185.514 219.592 192.158 245.555H176.216ZM157.708 186.229C153.705 195.831 150.303 205.673 147.52 215.697H167.778C165.025 205.678 161.662 195.837 157.708 186.229Z" fill="white"/>
<path d="M194.957 215.464V169.784H210.51V214.376C210.51 226.933 215.409 233.231 225.13 233.231C234.851 233.231 239.672 226.933 239.672 214.376V169.784H255.225V215.464C255.792 223.958 252.999 232.335 247.449 238.79C244.498 241.62 240.988 243.801 237.144 245.193C233.301 246.586 229.208 247.159 225.13 246.877C221.046 247.153 216.95 246.576 213.101 245.184C209.252 243.792 205.735 241.615 202.773 238.79C197.207 232.344 194.412 223.96 194.996 215.464" fill="white"/>
<path d="M270.117 245.555V169.784H295.507C300.586 169.621 305.644 170.481 310.384 172.311C315.123 174.142 319.446 176.906 323.095 180.441C326.745 183.975 329.647 188.206 331.629 192.884C333.611 197.561 334.632 202.589 334.632 207.669C334.632 212.749 333.611 217.777 331.629 222.455C329.647 227.132 326.745 231.364 323.095 234.898C319.446 238.432 315.123 241.197 310.384 243.027C305.644 244.858 300.586 245.718 295.507 245.555H270.117ZM295.041 182.963H285.631V232.337H295.041C309.79 232.337 317.152 224.043 317.126 207.455C317.1 190.868 309.738 182.704 295.041 182.963Z" fill="white"/>
<path d="M360.44 169.745H344.965V245.555H360.44V169.745Z" fill="white"/>
<path d="M448.044 245.555L443.495 228.877H415.577C414.048 233.931 412.531 239.49 411.028 245.555H395.086C401.737 219.61 410.542 194.265 421.409 169.784H437.546C448.514 194.237 457.36 219.587 463.986 245.555H448.044ZM429.536 186.229C425.534 195.831 422.131 205.673 419.349 215.697H439.606C436.853 205.678 433.49 195.837 429.536 186.229Z" fill="white"/>
<path d="M493.809 217.408H489.143V245.555H473.59V169.783H495.908C503.667 169.327 511.367 171.371 517.877 175.615C520.45 177.536 522.507 180.065 523.864 182.976C525.221 185.886 525.836 189.087 525.654 192.293C525.654 203.179 520.638 209.93 510.606 212.548C514.661 214.782 517.83 218.335 519.588 222.617L530.63 245.555H513.95L503.646 224.133C502.701 222.119 501.288 220.359 499.524 219.002C497.791 217.883 495.754 217.327 493.692 217.408M494.975 182.963H489.026V204.423H494.975C504.8 204.423 509.712 200.807 509.712 193.576C509.876 192.008 509.625 190.425 508.983 188.985C508.342 187.545 507.332 186.299 506.057 185.373C502.66 183.551 498.822 182.716 494.975 182.963Z" fill="white"/>
<path d="M587.786 245.555L583.237 228.877H555.28C553.751 233.931 552.235 239.49 550.731 245.555H534.828C541.451 219.606 550.243 194.26 561.113 169.784H577.249C588.218 194.237 597.064 219.587 603.689 245.555H587.786ZM569.239 186.229C565.237 195.831 561.835 205.673 559.052 215.697H579.349C576.614 205.673 573.251 195.83 569.278 186.229" fill="white"/>
<path d="M638.762 245.555H613.1V169.784H636.429C643.614 169.374 650.759 171.106 656.959 174.76C659.361 176.339 661.306 178.519 662.602 181.084C663.899 183.648 664.5 186.508 664.347 189.378C664.482 192.477 663.781 195.557 662.317 198.293C660.853 201.029 658.68 203.321 656.026 204.928C659.528 206.417 662.482 208.955 664.481 212.193C666.479 215.431 667.424 219.209 667.185 223.006C667.407 226.204 666.835 229.408 665.519 232.332C664.203 235.255 662.184 237.808 659.642 239.762C653.454 243.868 646.097 245.847 638.684 245.399M628.069 182.807V201.118H639.229C640.535 201.315 641.869 201.206 643.127 200.801C644.384 200.395 645.531 199.704 646.476 198.781C647.421 197.858 648.14 196.729 648.576 195.482C649.012 194.235 649.153 192.904 648.988 191.594C648.988 185.762 644.828 182.807 636.546 182.807H628.069ZM628.069 212.82V232.259H637.673C641.388 232.49 645.099 231.753 648.444 230.121C649.658 229.36 650.638 228.278 651.276 226.995C651.914 225.712 652.186 224.278 652.06 222.851C652.06 216.203 647.705 212.898 638.957 212.898L628.069 212.82Z" fill="white"/>
<path d="M694.325 169.745H678.85V245.555H694.325V169.745Z" fill="white"/>
<path d="M756.731 245.555L752.182 228.877H724.226C722.722 233.931 721.206 239.49 719.676 245.555H703.773C710.396 219.606 719.189 194.26 730.058 169.784H746.194C757.163 194.237 766.009 219.587 772.634 245.555H756.731ZM738.184 186.229C734.182 195.831 730.78 205.673 727.997 215.697H748.255C745.521 205.673 742.157 195.83 738.184 186.229Z" fill="white"/>
<path d="M827.537 217.408H822.871V245.555H807.318V169.784H829.637C837.407 169.335 845.117 171.378 851.644 175.615C854.218 177.537 856.275 180.066 857.632 182.976C858.989 185.886 859.603 189.087 859.421 192.293C859.421 203.179 854.405 209.931 844.373 212.548C848.428 214.782 851.597 218.335 853.355 222.617L864.398 245.555H847.64L837.336 224.134C836.391 222.119 834.977 220.36 833.214 219.002C831.48 217.884 829.444 217.327 827.382 217.408M828.704 182.963H822.716V204.423H828.704C838.502 204.423 843.401 200.807 843.401 193.576C843.566 192.009 843.315 190.425 842.673 188.985C842.031 187.545 841.022 186.3 839.746 185.373C836.364 183.551 832.538 182.715 828.704 182.963Z" fill="white"/>
<path d="M921.517 245.555L916.967 228.877H889.011C887.481 233.931 885.965 239.49 884.462 245.555H868.559C875.181 219.606 883.974 194.26 894.843 169.784H911.018C921.955 194.245 930.787 219.594 937.42 245.555H921.517ZM902.97 186.229C898.985 195.834 895.596 205.675 892.821 215.697H913.04C910.306 205.673 906.942 195.83 902.97 186.229Z" fill="white"/>
<path d="M962.499 169.745H947.023V245.555H962.499V169.745Z" fill="white"/>
<path d="M978.09 245.555V169.745H993.565V232.375H1024.2V245.555H978.09Z" fill="white"/>
<path d="M1095.83 230.937C1098.13 224.173 1100.62 215.011 1103.29 203.451C1105.96 191.892 1108.05 180.669 1109.55 169.784H1125.38C1120.19 200.885 1113.38 226.142 1104.92 245.555H1087.89C1081.99 230.209 1077.29 214.43 1073.82 198.358C1070.28 214.423 1065.53 230.2 1059.63 245.555H1042.63C1037.93 233.915 1034.03 221.964 1030.97 209.788C1027.37 196.103 1024.52 182.769 1022.42 169.784H1037.97C1039.65 180.825 1041.81 192.138 1044.42 203.723C1046.4 212.924 1048.88 222.009 1051.85 230.937C1054.65 223.343 1057.5 213.948 1060.4 202.751C1063.21 191.899 1065.38 180.89 1066.9 169.784H1080.93C1082.52 181.003 1084.73 192.126 1087.54 203.101C1089.84 212.534 1092.67 221.828 1096.02 230.937" fill="white"/>
<path d="M1175.85 245.555L1171.3 228.877H1143.34C1141.84 233.931 1140.32 239.49 1138.79 245.555H1122.89C1129.52 219.604 1138.33 194.258 1149.21 169.784H1165.35C1176.28 194.245 1185.12 219.594 1191.75 245.555H1175.85ZM1157.34 186.229C1153.28 195.822 1149.84 205.665 1147.03 215.697H1167.29C1164.52 205.684 1161.16 195.844 1157.22 186.229" fill="white"/>
<path d="M1216.36 245.555H1200.81V215.231C1190.48 201.251 1182.03 185.97 1175.69 169.784H1191.59C1196.05 181.336 1201.76 192.366 1208.62 202.674C1215.44 192.365 1221.1 181.335 1225.5 169.784H1241.44C1235 185.92 1226.56 201.188 1216.32 215.231L1216.36 245.555Z" fill="white"/>
<path d="M1246.03 242.445L1248.83 229.304C1255.17 231.893 1261.93 233.29 1268.78 233.425C1277.14 233.425 1281.33 230.548 1281.33 224.794C1281.44 223.454 1281.2 222.109 1280.64 220.886C1280.08 219.662 1279.22 218.599 1278.15 217.797C1274.49 215.659 1270.56 214 1266.48 212.859C1260.84 211.174 1255.65 208.252 1251.28 204.306C1249.5 202.441 1248.12 200.229 1247.23 197.808C1246.34 195.387 1245.96 192.808 1246.11 190.233C1245.94 187.206 1246.48 184.182 1247.66 181.392C1248.85 178.602 1250.66 176.121 1252.95 174.138C1258.55 170.003 1265.44 167.991 1272.39 168.462C1279.37 168.331 1286.29 169.655 1292.73 172.349L1289.69 185.257C1284.51 183.118 1278.97 181.983 1273.36 181.913C1265.59 181.913 1261.97 184.518 1261.97 189.689C1261.9 190.85 1262.1 192.012 1262.55 193.085C1263 194.157 1263.69 195.11 1264.58 195.87C1267.56 197.839 1270.8 199.371 1274.22 200.419C1277.31 201.462 1280.35 202.669 1283.32 204.034C1285.81 205.239 1288.16 206.726 1290.32 208.466C1292.53 210.246 1294.26 212.561 1295.33 215.192C1296.48 218.178 1297.04 221.361 1296.97 224.561C1297.13 227.702 1296.53 230.836 1295.21 233.693C1293.9 236.551 1291.91 239.047 1289.42 240.967C1283.59 245.073 1276.56 247.112 1269.44 246.76C1261.43 246.977 1253.47 245.466 1246.11 242.328" fill="white"/>
<path d="M103.661 43.8221L112.099 51.9474L122.169 41.7616L111.865 31.4592L103.661 39.6623L95.2624 31.4592L85.0752 41.7616L95.3402 51.9474L103.661 43.8221Z" fill="white"/>
<path d="M89.8964 103.459C83.5196 103.459 79.9035 100.194 79.9035 94.8286C79.9035 86.2756 87.369 79.511 100.822 76.8674V94.8286C100.836 96.9906 101.018 99.1484 101.367 101.282C97.7204 102.744 93.8247 103.483 89.8964 103.459ZM122.169 117.572H131.151C147.131 117.572 155.452 109.174 155.452 96.0338C155.076 85.4606 153.971 74.9259 152.147 64.5045H138.383C140.184 74.1568 141.276 83.9282 141.649 93.74C141.649 100.194 139.122 103.148 131.151 103.148H122.169C116.375 103.148 114.626 100.31 114.626 95.3729V58.5952H100.822V64.5045C75.1988 68.6643 66.4502 83.943 66.4502 96.1504C66.4502 109.485 75.4321 117.455 89.7797 117.455C95.8226 117.227 101.687 115.345 106.732 112.012C108.829 113.914 111.286 115.375 113.957 116.31C116.629 117.245 119.461 117.634 122.286 117.455" fill="white"/>
<path d="M138.383 132.034L130.178 124.142L119.991 134.328L130.373 144.514L138.383 136.622L146.47 144.514L156.657 134.328L146.354 124.142L138.383 132.034Z" fill="white"/>
<path d="M181.504 64.5046C188.93 80.0554 193.168 92.7293 193.168 96.8114C193.168 100.894 189.786 103.148 181.893 103.148C175.791 103.04 169.728 102.151 163.851 100.505L161.207 114.189C168.969 116.421 177.004 117.56 185.081 117.572C199.312 117.572 206.738 110.807 206.738 98.8719C206.738 91.4464 202.461 78.1893 195.579 64.5046H181.504Z" fill="white"/>
<path d="M305.15 100.621C301.071 93.1495 296.238 86.115 290.725 79.6278C294.832 77.7858 299.253 76.7435 303.751 76.5566C312.266 76.5566 317.204 80.4443 317.204 85.9648C317.204 91.4853 312.383 97.3558 305.15 100.621ZM245.194 103.459C234.151 103.459 228.124 99.2996 228.124 90.9022C228.003 89.2782 228.212 87.6464 228.738 86.1053C229.265 84.5643 230.099 83.146 231.189 81.936C232.279 80.7261 233.603 79.7496 235.081 79.0656C236.559 78.3815 238.161 78.0041 239.789 77.9561C246.243 77.9561 250.054 81.8438 250.637 90.5523C250.637 94.44 251.182 98.3277 251.376 103.382H245.155M447.344 93.6624C447.344 100.116 444.816 103.071 436.846 103.071C432.285 103.169 427.783 102.026 423.82 99.7661C425.604 92.3213 426.414 84.6764 426.231 77.0231V69.2477H413.399V77.0231C413.399 87.4032 412.855 93.9735 410.989 97.9389C410.171 99.7021 408.806 101.154 407.097 102.079C405.387 103.003 403.425 103.351 401.501 103.071C397.74 103.061 394.031 102.197 390.653 100.544C392.631 92.9325 393.508 85.0774 393.258 77.2175H380.349C380.349 87.5976 379.805 94.1679 377.939 98.1333C377.114 99.8996 375.742 101.353 374.026 102.277C372.31 103.202 370.341 103.548 368.412 103.265C364.357 103.233 360.364 102.261 356.748 100.427C358.589 92.7925 359.438 84.9525 359.275 77.1008H346.444C346.444 87.481 345.899 94.0512 344.033 98.0166C343.442 99.6947 342.294 101.12 340.78 102.053C339.266 102.987 337.477 103.374 335.712 103.148C330.849 103.223 325.987 102.924 321.17 102.254C324.036 99.7772 326.348 96.7246 327.955 93.2951C329.563 89.8656 330.431 86.1361 330.502 82.3492C330.502 71.1915 320.315 62.3276 304.917 62.3276C295.391 62.3276 283.337 66.7984 270.973 74.9237L276.65 86.5868L279.721 84.954C284.503 90.2038 288.689 95.9668 292.203 102.138C285.124 103.034 277.991 103.437 270.856 103.343H264.79C264.79 97.3169 264.557 93.5069 264.324 89.6581C263.468 73.252 254.175 63.9604 240.489 63.9604C225.83 63.9604 214.865 75.6235 214.865 91.5242C214.865 107.425 226.141 117.766 243.561 117.766H250.987C248.576 124.686 239.322 128.846 224.158 128.846V141.054C251.376 141.054 263.041 131.529 264.79 117.494H271.012C287.887 117.494 295.741 116.328 306.9 111.585C315.852 115.85 325.681 117.954 335.595 117.727C338.649 117.891 341.698 117.332 344.495 116.096C347.292 114.859 349.758 112.981 351.693 110.613C359.119 115.278 363.824 117.727 369.384 117.727C372.368 117.873 375.346 117.339 378.094 116.168C380.842 114.996 383.288 113.216 385.248 110.963C392.247 115.55 396.913 117.727 402.318 117.727C405.49 117.874 408.653 117.267 411.545 115.956C414.438 114.645 416.979 112.667 418.96 110.185C423.704 114.849 430.039 117.544 436.69 117.727C452.671 117.727 460.992 109.33 460.992 96.1895V38.2627H447.149L447.344 93.6624Z" fill="white"/>
<path d="M492.448 38.2627H478.645V117.611H492.448V38.2627Z" fill="white"/>
<path d="M565.74 43.8221L574.178 51.9474L584.248 41.7616L573.983 31.4592L565.74 39.6623L557.341 31.4592L547.154 41.7616L557.458 51.9474L565.74 43.8221Z" fill="white"/>
<path d="M600.464 132.034L592.221 124.142L582.072 134.328L592.454 144.514L600.464 136.622L608.551 144.514L618.739 134.328L608.435 124.142L600.464 132.034Z" fill="white"/>
<path d="M552.132 103.459C545.755 103.459 542.139 100.194 542.139 94.8286C542.139 86.2756 549.604 79.511 563.058 76.8674V94.8286C563.071 96.9906 563.253 99.1484 563.602 101.282C559.956 102.744 556.06 103.483 552.132 103.459ZM584.404 117.572H593.386C609.367 117.572 617.688 109.174 617.688 96.0338C617.311 85.4606 616.207 74.9259 614.383 64.5045H600.618C602.42 74.1568 603.511 83.9282 603.884 93.74C603.884 100.194 601.357 103.148 593.386 103.148H584.404C578.611 103.148 576.861 100.31 576.861 95.3729V58.5952H563.058V64.5045C537.434 68.6643 528.686 83.943 528.686 96.1504C528.686 109.485 537.667 117.455 552.015 117.455C558.058 117.227 563.922 115.345 568.968 112.012C571.064 113.914 573.521 115.375 576.192 116.31C578.864 117.245 581.696 117.634 584.521 117.455" fill="white"/>
<path d="M678.033 117.727H687.015C702.996 117.727 711.316 109.33 711.316 96.1894C710.959 85.6168 709.867 75.0817 708.05 64.6602H694.247C696.049 74.3125 697.14 84.0838 697.513 93.8957C697.513 100.349 695.025 103.304 687.015 103.304H678.033C675.293 103.355 672.622 102.441 670.49 100.721C668.357 99.0003 666.898 96.5841 666.368 93.8957C663.716 84.3074 661.779 74.5353 660.575 64.6602H646.344C648.209 76.183 650.873 87.5624 654.315 98.7164L655.637 102.099C651.389 102.96 647.061 103.364 642.728 103.304C636.978 103.252 631.267 102.362 625.775 100.66L623.131 114.345C629.359 116.616 635.942 117.761 642.572 117.727C649.651 117.8 656.588 115.741 662.48 111.818C666.678 115.769 672.271 117.894 678.033 117.727Z" fill="white"/>
<path d="M694.247 132.034L686.043 124.142L675.855 134.328L686.237 144.514L694.247 136.622L702.334 144.514L712.522 134.328L702.218 124.142L694.247 132.034Z" fill="white"/>
<path d="M851.526 93.7402C851.526 100.194 848.999 103.148 841.028 103.148C834.34 103.148 830.724 101.632 829.091 98.9886L832.474 98.3277L836.362 84.332C816.338 79.278 808.911 63.766 792.386 63.766C786.918 63.9869 781.583 65.5203 776.833 68.2369L780.721 80.4831C784.151 78.9001 787.871 78.04 791.647 77.9561C801.29 77.9561 806.656 84.9928 819.137 90.9799C806.228 95.9173 797.557 103.148 772.051 103.148C769.311 103.2 766.64 102.285 764.507 100.565C762.374 98.8448 760.915 96.4286 760.386 93.7402C757.733 84.1519 755.797 74.3799 754.592 64.5047H740.361C742.219 76.0326 744.895 87.4136 748.371 98.561L749.654 101.943C745.407 102.804 741.079 103.208 736.745 103.148C730.996 103.097 725.285 102.206 719.792 100.505L717.148 114.189C723.377 116.46 729.96 117.606 736.59 117.572C743.668 117.644 750.605 115.585 756.498 111.663C760.697 115.609 766.289 117.734 772.051 117.572C801.057 117.572 805.684 107.503 820.459 101.632C821.742 112.129 828.858 117.572 841.028 117.572C857.009 117.572 865.33 109.174 865.33 96.0339V38.2627H851.526V93.7402Z" fill="white"/>
<path d="M896.631 38.2627H882.828V117.611H896.631V38.2627Z" fill="white"/>
<path d="M972.996 103.148C967.086 103.148 961.604 102.915 956.16 102.487C975.601 81.0273 982.95 73.8351 992.826 73.8351C994.459 73.7292 996.095 73.9576 997.636 74.5064C999.177 75.0552 1000.59 75.9127 1001.79 77.0265C1002.98 78.1403 1003.94 79.4869 1004.6 80.9837C1005.26 82.4805 1005.61 84.0961 1005.62 85.7314C1005.62 95.8006 992.826 103.148 972.996 103.148ZM995.393 59.4117C983.728 59.4117 974.513 65.7487 957.754 84.0209C959.473 77.0668 960.463 69.9529 960.709 62.794V38.3015H946.906V96.3449C945.701 97.9 944.379 99.2995 943.018 100.855C939.596 100.427 936.33 99.7661 933.064 99.1052L930.42 112.673C944.069 115.908 958.037 117.603 972.063 117.727C1002.59 117.727 1019.58 104.159 1019.58 83.9431C1019.75 80.7067 1019.24 77.4703 1018.09 74.4405C1016.94 71.4107 1015.17 68.6539 1012.89 66.3458C1010.62 64.0378 1007.89 62.2291 1004.87 61.0352C1001.86 59.8414 998.632 59.2884 995.393 59.4117Z" fill="white"/>
<path d="M1211.27 46.7768L1200.96 36.6299L1190.82 46.7768L1201.08 56.9626L1211.27 46.7768Z" fill="white"/>
<path d="M1120.21 103.149H1103.25C1122.3 82.0383 1130.16 73.7964 1139.8 73.7964C1141.43 73.6954 1143.06 73.9294 1144.6 74.4838C1146.13 75.0382 1147.54 75.9013 1148.72 77.0199C1149.91 78.1384 1150.86 79.4885 1151.5 80.9869C1152.15 82.4853 1152.48 84.1001 1152.48 85.7316C1152.48 95.8008 1139.69 103.149 1120.21 103.149ZM1057.99 103.46C1046.95 103.46 1040.92 99.2997 1040.92 90.9023C1040.8 89.2783 1041.01 87.6465 1041.54 86.1054C1042.06 84.5644 1042.9 83.1461 1043.99 81.9361C1045.08 80.7262 1046.4 79.7497 1047.88 79.0657C1049.36 78.3816 1050.96 78.0042 1052.59 77.9562C1059.04 77.9562 1062.89 81.8439 1063.44 90.5524C1063.67 94.4401 1063.98 98.3278 1064.21 103.382H1057.95M1252.79 93.6625C1252.79 100.116 1250.27 103.071 1242.26 103.071C1235.61 103.071 1231.99 101.516 1230.36 98.911L1233.74 98.2501L1237.63 84.2543C1217.61 79.2003 1210.18 63.6884 1193.65 63.6884C1188.19 63.9047 1182.85 65.4384 1178.1 68.1592L1181.99 80.4055C1185.43 78.8226 1189.17 77.9625 1192.95 77.8785C1202.6 77.8785 1207.96 84.9152 1220.44 90.9023C1207.5 95.8397 1198.86 103.071 1173.36 103.071C1169.31 103.14 1165.31 102.233 1161.69 100.427C1164.94 95.4639 1166.62 89.6396 1166.51 83.71C1166.64 80.5105 1166.1 77.3197 1164.95 74.3332C1163.8 71.3466 1162.04 68.6271 1159.8 66.3413C1157.56 64.0555 1154.87 62.2516 1151.91 61.04C1148.94 59.8284 1145.76 59.2347 1142.56 59.2953C1131.48 59.2953 1121.53 65.8655 1105.78 84.1377C1107.5 77.1047 1108.49 69.9134 1108.73 62.6776V38.1851H1094.93V97.1615C1093.42 99.1442 1091.86 101.049 1090.34 103.071H1077.75C1077.75 97.0448 1077.75 93.2349 1077.32 89.3861C1076.42 72.98 1067.13 63.6884 1053.44 63.6884C1038.79 63.6884 1027.86 75.3515 1027.86 91.2522C1027.86 107.153 1039.14 117.494 1056.52 117.494H1063.98C1061.57 124.414 1052.32 128.574 1037.15 128.574V141.054C1064.37 141.054 1076.03 131.529 1077.75 117.494H1121.53C1133.05 118.015 1144.44 114.842 1154.03 108.436C1156.51 111.158 1159.51 113.36 1162.84 114.915C1166.18 116.47 1169.8 117.347 1173.47 117.494C1202.48 117.494 1207.07 107.425 1221.84 101.555C1223.17 112.051 1230.28 117.494 1242.41 117.494C1258.39 117.494 1266.71 109.097 1266.71 95.9563V38.2628H1252.95L1252.79 93.6625Z" fill="white"/>
<path d="M1298.09 38.2627H1284.29V117.611H1298.09V38.2627Z" fill="white"/>
<path d="M1535.54 245.555H1604.26L1668.68 36.7178H1645.6L1535.54 245.555Z" fill="white"/>
<path d="M1701.6 36.7395H1678.54L1742.96 245.555H1811.68L1701.6 36.7395Z" fill="white"/>
<path d="M1347.76 204.988V245.401H1462.95C1479.47 245.273 1495.26 238.588 1506.85 226.817C1518.45 215.046 1524.89 199.153 1524.76 182.634C1524.63 166.115 1517.94 150.323 1506.17 138.733C1494.4 127.143 1478.5 120.703 1461.98 120.831H1400.04C1394.3 120.825 1388.8 118.544 1384.75 114.489C1380.69 110.434 1378.41 104.935 1378.4 99.1999V98.7177C1378.41 92.9826 1380.69 87.4841 1384.75 83.4287C1388.8 79.3734 1394.3 77.0925 1400.04 77.0867H1503.91V36.6299H1398.7C1382.34 36.8886 1366.74 43.5658 1355.26 55.2215C1343.78 66.8771 1337.34 82.5775 1337.33 98.9369C1337.35 115.474 1343.94 131.325 1355.64 143.008C1367.35 154.691 1383.21 161.25 1399.75 161.244H1461.7C1467.43 161.25 1472.92 163.528 1476.98 167.578C1481.04 171.629 1483.32 177.122 1483.33 182.853V183.467C1483.33 189.202 1481.04 194.7 1476.99 198.756C1472.93 202.811 1467.43 205.092 1461.7 205.098L1347.76 204.988Z" fill="white"/>
<path d="M1844.27 245.555H1883.73C1883.86 245.555 1883.99 245.501 1884.08 245.407C1884.18 245.312 1884.23 245.184 1884.23 245.05V77.5469C1884.23 77.4191 1884.28 77.2964 1884.37 77.206C1884.46 77.1156 1884.58 77.0648 1884.71 77.0648H1954.85C1960.72 77.0648 1966.34 79.3946 1970.49 83.5416C1974.64 87.6886 1976.97 93.3132 1976.97 99.178C1976.96 104.913 1974.68 110.412 1970.63 114.467C1966.57 118.522 1961.07 120.803 1955.34 120.809H1906.32C1906.24 120.81 1906.15 120.833 1906.08 120.877C1906 120.92 1905.94 120.982 1905.89 121.057C1905.85 121.133 1905.83 121.218 1905.83 121.305C1905.82 121.392 1905.84 121.478 1905.89 121.554L1976.14 244.831C1976.18 244.91 1976.24 244.976 1976.32 245.023C1976.4 245.069 1976.49 245.094 1976.58 245.094H2020.08C2020.17 245.094 2020.26 245.07 2020.33 245.027C2020.41 244.983 2020.47 244.921 2020.51 244.846C2020.56 244.771 2020.58 244.686 2020.58 244.599C2020.59 244.512 2020.56 244.426 2020.52 244.349L1974.03 163.918L1971.84 159.907C1971.8 159.845 1971.78 159.776 1971.78 159.704C1971.77 159.633 1971.78 159.561 1971.81 159.494C1971.83 159.427 1971.87 159.366 1971.92 159.316C1971.97 159.266 1972.04 159.228 1972.1 159.206L1976.49 157.65C1982.73 155.421 1988.58 152.219 1993.83 148.16C2003.81 140.423 2011.2 129.837 2015.03 117.804C2018.85 105.771 2018.93 92.8596 2015.26 80.7801C2011.58 68.7006 2004.32 58.0231 1994.44 50.1622C1984.55 42.3013 1972.52 37.628 1959.92 36.7614C1958.8 36.7614 1957.72 36.6518 1956.59 36.6299H1844.36C1844.23 36.6299 1844.1 36.683 1844 36.7775C1843.91 36.8721 1843.86 37.0003 1843.86 37.1339V245.05C1843.86 245.184 1843.91 245.312 1844 245.407C1844.1 245.501 1844.23 245.555 1844.36 245.555" fill="white"/>
</g>
<defs>
<clipPath id="clip0_134_163">
<rect width="2053" height="285" fill="white"/>
</clipPath>
</defs>
</svg>
