<svg width="45" height="45" viewBox="0 0 45 45" fill="none" xmlns="http://www.w3.org/2000/svg">
<circle cx="22.5" cy="22.5" r="22.5" fill="#E8E8E8"/>
<g clip-path="url(#clip0_58_106)">
<path d="M28.5104 24.9896C27.5846 24.0638 26.4827 23.3785 25.2804 22.9636C26.5681 22.0767 27.4141 20.5924 27.4141 18.9141C27.4141 16.2045 25.2096 14 22.5 14C19.7904 14 17.5859 16.2045 17.5859 18.9141C17.5859 20.5924 18.4319 22.0767 19.7196 22.9636C18.5174 23.3785 17.4154 24.0638 16.4896 24.9896C14.8842 26.595 14 28.7296 14 31H15.3281C15.3281 27.0454 18.5454 23.8281 22.5 23.8281C26.4546 23.8281 29.6719 27.0454 29.6719 31H31C31 28.7296 30.1158 26.595 28.5104 24.9896ZM22.5 22.5C20.5227 22.5 18.9141 20.8914 18.9141 18.9141C18.9141 16.9368 20.5227 15.3281 22.5 15.3281C24.4773 15.3281 26.0859 16.9368 26.0859 18.9141C26.0859 20.8914 24.4773 22.5 22.5 22.5Z" fill="black"/>
</g>
<defs>
<clipPath id="clip0_58_106">
<rect width="17" height="17" fill="white" transform="translate(14 14)"/>
</clipPath>
</defs>
</svg>
